<svg id="Layer_1" data-name="Layer 1" xmlns="http://www.w3.org/2000/svg" width="14.48cm" height="14.48cm" viewBox="0 0 410.55 410.55"><defs><style>.cls-1{fill:#fff;}.cls-2{fill:#022859;}</style></defs><circle class="cls-1" cx="205.28" cy="205.28" r="205.28"/><path class="cls-2" d="M75.19,69.36H89.36V122.3h.49c2.93-4.24,5.86-8.15,8.63-11.73L132,69.36h17.59l-39.75,46.58,42.84,63.2H136L99.78,125.23l-10.42,12v41.86H75.19Z"/><path class="cls-2" d="M230.44,127.67H187.77v39.58h47.56v11.89H173.59V69.36h59.29V81.25H187.77v34.69h42.67Z"/><path class="cls-2" d="M263.85,70.82a148.19,148.19,0,0,1,27.21-2.28c15.15,0,24.92,2.77,31.76,9,5.54,4.89,8.63,12.38,8.63,20.85,0,14.5-9.12,24.11-20.68,28v.49c8.47,2.93,13.52,10.75,16.12,22.15,3.59,15.31,6.19,25.9,8.47,30.13H320.7c-1.79-3.09-4.23-12.54-7.33-26.22-3.26-15.15-9.12-20.85-22-21.34H278v47.56H263.85Zm14.18,50h14.49c15.15,0,24.76-8.31,24.76-20.85,0-14.17-10.26-20.36-25.25-20.52-6.84,0-11.72.65-14,1.3Z"/><path class="cls-2" d="M75.19,342V232.22H90.66l35.19,55.55a311.86,311.86,0,0,1,19.71,35.67l.32-.16c-1.3-14.66-1.63-28-1.63-45.12V232.22h13.36V342H143.28L108.42,286.3c-7.66-12.22-15-24.76-20.53-36.65l-.49.16c.82,13.85,1.15,27,1.15,45.29V342Z"/><path class="cls-2" d="M239.89,290.54H197.21v39.58h47.56V342H183V232.22h59.29v11.89H197.21v34.7h42.68Z"/><path class="cls-2" d="M263.85,233.69a147.32,147.32,0,0,1,27.21-2.28c15.14,0,24.92,2.77,31.76,9,5.54,4.88,8.63,12.38,8.63,20.85,0,14.49-9.12,24.1-20.68,28v.49c8.47,2.93,13.52,10.75,16.12,22.15,3.59,15.31,6.19,25.9,8.47,30.14H320.7c-1.79-3.1-4.23-12.54-7.33-26.23-3.26-15.15-9.12-20.85-22-21.34H278V342H263.85Zm14.18,50h14.49c15.15,0,24.76-8.3,24.76-20.85,0-14.17-10.26-20.36-25.25-20.52-6.84,0-11.72.65-14,1.3Z"/></svg>