<svg id="Layer_1" data-name="Layer 1" xmlns="http://www.w3.org/2000/svg" width="14.48cm" height="14.48cm" viewBox="0 0 410.55 410.55"><defs><style>.cls-1{fill:#fff;}.cls-2{fill:#c23a41;}</style></defs><circle class="cls-1" cx="205.28" cy="205.28" r="205.28"/><path class="cls-2" d="M106.92,323.93l21.7-30.8C109,272.13,97.47,241,97.47,206c0-74.56,47.25-123.21,108.86-123.21,21.7,0,42,6.3,58.8,18.55L285.78,73l18.55,12.6-21.7,30.1c19.6,21.35,30.45,52.15,30.45,86.81,0,82.25-50.75,123.9-107.1,123.9-22.4,0-43.06-6.65-59.86-18.9l-22.05,30.1ZM250.08,123.72A66.51,66.51,0,0,0,206,107.27c-51.46,0-77.36,47.6-77.36,97,0,26.25,7,45.15,17.5,63.35l.35-.35ZM161.17,285.08c11.55,10.85,25.2,16.8,44.11,16.8,49.35,0,76.65-45.15,76.65-98.35,0-19.95-4.2-41.3-16.45-61.26h-1.05Z"/></svg>