<svg id="Layer_1" data-name="Layer 1" xmlns="http://www.w3.org/2000/svg" width="34.6cm" height="4.68cm" viewBox="0 0 980.91 132.55"><defs><style>.cls-1{fill:#022859;}.cls-2{fill:#c23a41;}.cls-2,.cls-3{stroke:#022859;stroke-miterlimit:10;stroke-width:3px;}.cls-3{fill:#fff;}</style></defs><path class="cls-1" d="M257.87,78.62c0-1.89,0-3.78,0-5.67,0-4.06-1-8-.78-12.13s.06-8,.06-12.06a13.62,13.62,0,0,0,0-2.12,1.66,1.66,0,0,1,1.08-2c.8-.21,1.9-.57,2.62.36.92,1.16,2.19,1.95,2.91,3.4a6.68,6.68,0,0,0,2.57,2.86c1,.58,1.48,2,2.35,2.86a20.74,20.74,0,0,1,3.52,4.25,18.78,18.78,0,0,0,3.53,4.23,38.27,38.27,0,0,1,5.83,7.17,2,2,0,0,0,.25.26c2.44,2.66,4.88,5.33,7.35,8a4.16,4.16,0,0,0,1.17.6c.16-.39.48-.78.45-1.15-.22-2.74.35-5.48-.57-8.26-.61-1.82-.27-4-.09-6,.36-3.95-.88-7.67-1.49-11.47-.05-.31-.49-.59-.8-.81-1-.71-2.09-1.33-3-2.12-.49-.41-1.2-1.42-1.07-1.58A7.27,7.27,0,0,1,286,45.31a3,3,0,0,1,2.11,0,13.39,13.39,0,0,0,9.09,0c1.42-.47,3.17.17,3.52.93.49,1.05,0,2.37-1.3,3.63-.26.25-.48.53-.76.75-.7.53-1.76.89-2,1.58a11.39,11.39,0,0,0-.76,3.93c-.1,2.84,0,5.68-.06,8.52-.06,1.8.54,3.69-.65,5.4a1.37,1.37,0,0,0,.18,1.29c.6.65.6,1.05.07,1.78a2.19,2.19,0,0,0,0,1.87,6.08,6.08,0,0,1,.19,4.72,8.8,8.8,0,0,0-.48,3c-.06,3.66,0,7.33,0,11,0,.67-.16,1.88-.35,1.9-1,.1-2.07.43-2.92-.64s-1.88-1.81-2.74-2.79-1.7-2.13-2.55-3.2-1.76-2.1-2.51-3.23c-1.76-2.65-4.15-4.71-6.32-7a22,22,0,0,1-1.79-2.45c-2.93-4-6.76-7.17-9.4-11.38a16.54,16.54,0,0,0-3-3,1.09,1.09,0,0,0-.93-.24c-.21.1-.32.55-.38.86-.19,1,.42,2.12-.63,3-.14.11,0,.62.09.93.15.53.53,1,.5,1.55-.31,5.84,1.33,11.61.7,17.44-.21,2,1.08,3.37,1.62,5,.13.43.83.75,1.34,1,.7.32,1.64.3,2.15.78.67.63,2.25.2,2.09,1.74a3,3,0,0,1-2.84,2.45,11.55,11.55,0,0,1-3.34-.52,8.65,8.65,0,0,0-4.77.23,14.28,14.28,0,0,1-6.63.15c-3-.65-5.92-1.78-8.87-2.71a6.91,6.91,0,0,1-3.13-1.95C237.21,88,233.68,84.7,230.7,81c-1.51-1.9-2.9-4-4.32-6a5.79,5.79,0,0,0-1.1-1.3c-.59-.44-1.83.2-1.74.9.33,2.57.59,5.15,1.13,7.69a3,3,0,0,1,0,1.89c-1.45,2.46.36,4.3,1.18,6.26.22.52,1.32.88,2,.93a2.63,2.63,0,0,1,1.82.85,2.37,2.37,0,0,1-.85,4.16c-.2.08-.58.1-.69,0-1.16-1.31-2.68-.56-4-.63s-2.82-.49-4,.66c-2.62,0-5.25,0-7.87,0a3.22,3.22,0,0,1-2.36-2.21,1.76,1.76,0,0,1,1.43-2,5.61,5.61,0,0,0,2.06-1c.84-.77,2-1.69,2.11-2.63.15-1.85,1.76-3.6.47-5.58a3.12,3.12,0,0,1,0-2.9c.35-1,.6-2.6.06-3.22-.89-1,.38-1.64,0-2.29A1.78,1.78,0,0,1,216.2,72c.16-.17-.12-.78-.22-1.18s-.41-.72-.31-.91c1.13-2-.29-3.86-.08-5.82s-.06-4.26.09-6.38A12.38,12.38,0,0,0,214.9,53a3.49,3.49,0,0,0-2.25-2.55,3.47,3.47,0,0,1-2.29-2.2c-.44-1-.7-1.65.07-2.45.16-.17.33-.34.5-.5.76,1,1.67-.53,2.2,0,1,1,2.22.44,3.33.66a27,27,0,0,1,2.92.71c1.36.41,2.59-1.35,4-.21,1.52-.86,3.07-.16,4.58-.2,1.74,0,3.55-.27,5.34-.3,3.15-.06,5.73,1.76,8.42,3,1.78.79,3.09,2.7,4,4.62,1.14,2.35,2.32,4.68.7,7.28.54,3.14-1.67,5.27-3.08,7.59-1.12,1.84-3.51,2.26-5.45,3.09a11.18,11.18,0,0,0-1.58.49c-.65.41-.92,1-.24,1.7a71.46,71.46,0,0,1,6,6.71c2.3,3.26,5.15,6.06,7.48,9.3.87,1.2,2.82,1.64,4.31,2.37a1.05,1.05,0,0,0,1-.18c1.39-1.61,3.14-3,3.07-5.47S257.87,81.22,257.87,78.62Zm-29.7-9.69c1.24-.35,2.31-.64,3.37-1,4.54-1.38,6.4-4.65,5.66-9.25-.18-1.12-.9-2.09-.78-3.22.18-1.7-.86-2.51-2.17-3.14a27.62,27.62,0,0,0-3.33-1.4c-1.07-.33-2.37.53-3.33-.58,0,0-.32.14-.49.2a3.69,3.69,0,0,0-2.86,4.06c0,3.76.16,7.54-.11,11.29-.07,1.09-.42,1.72.88,2C226.08,68.25,227.13,68.62,228.17,68.93Z"/><path class="cls-1" d="M643.67,95.65c-4.53,0-9.07-.12-13.59.07-1.44.07-1.65-.82-1.75-1.53s.5-1.4.85-2.08c.07-.12.45,0,.64-.13,2.28-1.24,3.06-2.56,2.34-5s-1.88-4.66-2.8-7c-.39-1-1-1.59-2.09-1.38-1.33.24-2.82-.63-4,.66a1.4,1.4,0,0,1-1.36,0c-1.2-1.3-2.7-.55-4-.63-2-.12-3.08.64-3.5,2.47a50.59,50.59,0,0,0-.73,5.37c-.08.7.07,1.43,0,2.13-.36,2.54-.3,2.61,1.9,3.5a6.67,6.67,0,0,1,1.94,1.32,1.37,1.37,0,0,1-.6,2.18,3.2,3.2,0,0,1-1.07,0c-2.88-.26-5.85.64-8.66-.68a1.64,1.64,0,0,0-1.39,0,2.52,2.52,0,0,1-3.4,0,1.36,1.36,0,0,0-1.32.11c-1.26,1.27-1.93.24-2.38-.66-.52-1.06.36-2.3,1.8-2.27,1.87,0,2.73-1.49,4.13-2.15s1.71-2.27,2.35-3.6a34.68,34.68,0,0,0,3.16-8.29A6.1,6.1,0,0,1,610.9,76c1.17-1.79,1.58-3.85,2.36-5.78s1.19-4,1.8-6c.35-1.14,1.22-2.19,1.33-3.32s.9-2.1,1.19-3.07c.71-2.44,2.11-4.62,2.48-7.16.29-2,1.55-3.67,1.51-5.79,0-1,2.21-1.26,3.1-.31a4.14,4.14,0,0,1,1.07,2c.52,3.22,2.41,5.88,3.51,8.85,1,2.57,2,5.1,3,7.66a10.59,10.59,0,0,0,.86,2.47c2.31,3.18,2.37,7.34,4.77,10.46-.13,1.77,1,3.15,1.44,4.72a7,7,0,0,0,1.05,2.07,4.94,4.94,0,0,1,1.12,2.69c-.13,2.23,1.44,3.48,2.48,5,.39.59,3.14,1.51,4,1.56a4.17,4.17,0,0,0,3-1.27,16.52,16.52,0,0,0,2.3-2.93c.24-.35.55-1,.41-1.21-1.1-2,.35-3.86.09-5.83a46.47,46.47,0,0,1,0-6V68.46c0-2,.06-4,0-6,0-1.11.51-2.36-.62-3.3-.12-.1,0-.44-.07-.67-.11-1.22,1.61-2.3,0-3.71-1.06-1-.54-2.61-.85-3.9-.21-.89-1.43-1.29-2.43-1.32A1.63,1.63,0,0,1,648,48.17c-.14-.86-.34-1.86.64-2.55a1.63,1.63,0,0,1,2.2,0,1.76,1.76,0,0,0,2.22,0c.37-.21,1.13.38,1.69.34,2.08-.18,4.22.57,6.25-.45.15-.08.48.28.74.3a21.34,21.34,0,0,0,3.83.05c1.65-.23,2.84.26,3.11,1.7.09.49.25,1.1-.68,1.31s-1.53,1-2.36,1.17c-1.94.46-2.16,2.06-2.65,3.5a8.69,8.69,0,0,0-.67,2.54c0,.72.81,1.94.6,2.11-1.69,1.34.49,2.78-.21,4-.83,1.45-.38,3-.42,4.43q-.12,5.31,0,10.64c0,1.34-.6,2.57-.12,4s.15,3,.08,4.58a4.72,4.72,0,0,0,1.38,3.7A3.13,3.13,0,0,0,666,90.73a15,15,0,0,0,8.82-2.1,4.28,4.28,0,0,0,1.75-1.4c1.11-2,2.72-3.78,3.48-6a5,5,0,0,1,1-1.7,2.27,2.27,0,0,1,1.4-.84c.86,0,.26,1,.56,1.37,1,1.06.49,2,0,3-1,1.81-1,3.88-1.35,5.82a30.85,30.85,0,0,1-1.43,4.39c-.67,1.87-2.11,2.2-3.66,2.39-1.09.12-2.12-.44-3.37-.06s-2.83.09-4.26.09a17.06,17.06,0,0,0-3.92.07c-1.1.27-1.87-.91-3.08-.23a2.17,2.17,0,0,1-2.86-.51c-2.4,1.47-5,.44-7.55.63S646.29,95.65,643.67,95.65Zm-22-21.29c1.31,0,2.61.06,3.91,0a1.4,1.4,0,0,0,1.31-2c-.53-1.43-.34-3.17-1.83-4.18-.22-2.78-2.19-5.08-2.2-7.94,0-.45-.62-.9-1-1.36-.38.39-1,.7-1.12,1.16-1.17,3.41-2.34,6.81-3.34,10.27a17.41,17.41,0,0,0-.26,3.77c1,.12,2,.25,3.06.34C620.72,74.39,621.2,74.36,621.67,74.36Z"/><path class="cls-1" d="M152.66,49.28c0,1.22,0,2.06,0,2.88a3.13,3.13,0,0,1-.84,2.16,15.23,15.23,0,0,1-3.24,4c-1.37,1-2.54,2.25-4.26,2.71a.63.63,0,0,0-.23.58c.09.27.37.7.53.69,2.44-.24,4,2,6.25,2.24.56.07,1.23.85,1.49,1.46.94,2.22,2.65,4.07,3.16,6.51.41,1.94,2.08,3.63,1.41,5.79-.82,2.64-.24,5.63-2.12,8-1.2,1.5-2.15,3.22-3.48,4.58a17.48,17.48,0,0,1-3.87,2.66c-1.44.81-3.05,2.14-4.45,2-2.65-.27-5.05,1.87-7.77.41-.66-.35-1.85.32-2.8.45-1.55.22-3.28.88-4.6.43a11.87,11.87,0,0,0-4.47-.37c-3,.08-5.95.88-9,.74a3.71,3.71,0,0,1-2.92-1.6c-.79-1-.31-2.16.88-2.87s2-1.42,3.4-1.29c1.16.1,1.58-.67,1.86-1.62.74-2.48,1.85-4.88,1.43-7.57-.16-1,.79-1.85.06-3-.56-.88.36-1.9.62-2.87a3.7,3.7,0,0,0,0-2.11,12.35,12.35,0,0,1,0-8.31,6.84,6.84,0,0,0-.22-4.12,5.29,5.29,0,0,1-.39-2.3c.12-1.22.94-2.6.56-3.57a12,12,0,0,1-.6-3.65c-.08-1.16-.32-2.31-.32-3.47s.27-2.26.31-3.4a9.1,9.1,0,0,0-.61-4c-.46-1.11-.74-2-2-1.81s-2.16-.65-3.09-1.19a3.66,3.66,0,0,1-1.36-4,.91.91,0,0,1,.75-.48c1.47.17,3-.54,4.44.49a2.2,2.2,0,0,0,1.34.18c3.37-.34,6.83.76,10.14-.58,1.41,1.65,3.1-.51,4.86.44,1.38.74,3.64-.28,5.24.27s3.51.44,5.22,1.2c2.21,1,4.15,1.86,5.43,4.11.82,1.43,1.87,2.75,2.67,4.24C152.92,46,152.53,47.87,152.66,49.28ZM129,76.45c0,3.41,0,6.83,0,10.25,0,2.13,2.38,5,4.18,4.56a39.07,39.07,0,0,1,5.08-.61c2.05-.27,7.59-5.82,7.87-7.75.2-1.39-.47-3.12.15-4.17.95-1.6-.17-2.75-.18-4.08a6.19,6.19,0,0,0-1.05-3.76c-2.79-3.23-6-5.89-10.74-5.78a4.18,4.18,0,0,1-2.68-.44c-1-.61-2.63.71-2.64,1.88C129,69.85,129,73.15,129,76.45Zm13.55-27.26a6.55,6.55,0,0,0-2.26-6.37c-1.91-1.51-3.75-3.77-6.74-3.35-1.58-1.7-2.88.51-4.37.35-.25,0-.89.89-.85,1.32.19,1.92-.63,3.92.51,5.79a1.71,1.71,0,0,1,0,1.59c-1.13,1,.87,1.65.22,2.72a10,10,0,0,0-.76,3.21.73.73,0,0,0,.22.6c.7.6.34,1,0,1.74-.76,1.81-.18,3.07,1.49,3.28a18.17,18.17,0,0,0,3.85-.36c.25,0,.59.24.74.15,1.94-1.21,4.73-1.43,5.2-4.38,0-.28.46-.52.73-.75A5.7,5.7,0,0,0,142.59,49.19Z"/><path class="cls-1" d="M448.74,95.65c-2,0-4.06-.05-6.08,0a2.09,2.09,0,0,1-2.1-1c-.67-1.18.69-1.73,1-2.59.26-.59,1.27-.84,1.88-1.33a7.1,7.1,0,0,0,2.64-6c-.06-2.42,1-4.68.76-7.16s-.65-4.94.11-7c.91-2.55-.23-5.26,1.22-7.66.37-.6,0-1.62.07-2.45.24-2.74-.66-5.57.7-8.22-.78-1.57.21-3.15,0-4.73-.14-1.16.16-2.08,1.54-2.28s2,0,2.73,1.47,1.28,3,2.09,4.46a40.32,40.32,0,0,1,2.92,5.89,8.84,8.84,0,0,0,2.09,3.42,5.87,5.87,0,0,1,1.47,2.22,24,24,0,0,0,4.11,7.53c-.15,2.21,2.16,3.26,2.5,5.4.21,1.33,1,3.44,2.65,3.56s1.78-2,2.39-3.24c1.64-3.35,2.7-6.93,4.14-10.36A48.09,48.09,0,0,1,480,60.18a33.21,33.21,0,0,0,1.8-4.93c.84-2.27,2.17-4.32,2.82-6.65.29-1.06,1-2,1-3.19,0-.5.86-1.21,1.48-1.53a1.28,1.28,0,0,1,1.73.8c.34,1,1.92,2,.28,3.2.34,1.07.46,2.31.86,3.2.56,1.27.13,2.6.66,3.62s1,2-.07,3c1.61,3.19.71,6.89,2.13,10.12-.5,2.46,1,4.76.66,7.15-.21,1.6.62,2.87.8,4.32s-.43,2.66.59,4c.56.77.08,2.29.1,3.48a4.92,4.92,0,0,0,2.92,4.59,12.15,12.15,0,0,1,2.3,1.32c.51.4,1.27,1.37,1.14,1.55-.55.81-1.3,1.8-2.16,2a6.9,6.9,0,0,1-4.22,0c-1.86-.87-3.66-.5-5.48-.58-2.14-.11-4.29,0-6.43-.08a2.14,2.14,0,0,1-1.59-1.08,2.34,2.34,0,0,1,.49-1.85,2.87,2.87,0,0,1,1.93-1.33c2.14-.32,2.94-2.11,3.17-3.9.32-2.49-.74-4.9-1-7.37,0-.43-.4-.86-.35-1.25.49-3.63-.85-7.12-.76-10.71a6.4,6.4,0,0,0-.39-1.61c-.17-.64-.34-1.28-.5-1.92-.65.57-1.56,1-1.9,1.74a27.7,27.7,0,0,0-2.11,5.51c-.75,3.13-2.57,5.81-3.37,8.92-.52,2-1.75,3.83-2.15,5.83s-2.11,3.52-1.75,5.7c0,.16-.32.36-.34.55a2.45,2.45,0,0,1-2.31,2A3,3,0,0,1,467.67,93c-1.28-4.5-4.16-8.23-5.84-12.51a13,13,0,0,0-1.92-2.76c-.21-.29-.65-.47-.73-.77-.82-3.38-3.35-6-4.38-9.19a7,7,0,0,0-1.45-2.25c-.47-.62-.72-.14-1,.16s-.5.4-.46.5c.63,2-1.18,3.87,0,5.81-.33,3.93.68,7.92-.56,11.82a4.35,4.35,0,0,0,.25,1.91c.08.43.41,1,.28,1.27-.45,1-1.06,2,.29,2.88.85.55,1.25,1.65,2.61,1.56.67,0,1.42.55,2.07,1a1.54,1.54,0,0,1,.79,1.8,1.64,1.64,0,0,1-1.67,1.44Z"/><path class="cls-1" d="M768.4,69.13c-.3,2.73-.72,5.46-.88,8.2s.1,5.44-.07,8.15A6.12,6.12,0,0,0,771.33,92c.3.13.69.09.95.27a1.88,1.88,0,0,1,.93,2.08c-.13.55-2.17,1.39-2.75,1a3.15,3.15,0,0,0-2.67-.3c-2.93.67-2.91.68-5.57,0a2.58,2.58,0,0,0-1.9.3c-1.3,1-2.11-.47-3.18-.52a2.53,2.53,0,0,1-.19-1.78,8.23,8.23,0,0,1,2.11-1.68,5.76,5.76,0,0,0,2.74-4.8c.05-1.45.5-2.88.66-4.32s-.15-2.91.65-4.36c.46-.82.2-2.1,0-3.15-.11-.77,1.27-1.5,0-2.25,1.33-3,.09-6.28.83-9.25a35.82,35.82,0,0,0,.6-6.47c.12-1.58.94-3,.8-4.68-.06-.71-1.32-1.31-.17-2.33.48-.42,0-1.82.11-2.75a5.28,5.28,0,0,1,.76-2.15,12,12,0,0,1,1.74-1.75c.54.86,1.71,1.16,1.81,2.47.13,1.64,1.62,4.51,2.46,6.07,1.86,3.48,3.54,7.06,5.39,10.55s3,7.12,5.5,10.15c-.42,1.79,1.83,2.51,1.72,4.3,0,.72.8,1.54,1.33,2.24a6,6,0,0,0,1.25,1,6.79,6.79,0,0,0,.9-1.4c.76-2.29,1.16-4.76,2.25-6.87,1-1.88,1.63-3.83,2.42-5.75.45-1.13,1.18-2.11,1.12-3.47s2-1.72,1.39-3.3c1.87-2.65,2.49-5.84,3.77-8.74a42.24,42.24,0,0,0,1.77-5.3c.25-.9.57-1.33,1.6-1.24,1.53.14,2,.57,2.17,2,.19,1.8.13,3.74.83,5.33a7.9,7.9,0,0,1,.58,3,12.5,12.5,0,0,0,.65,4.7c.62,1.4-.53,3.22.76,4.67.24.27,0,.92,0,1.39a8.41,8.41,0,0,0,.66,4,8.68,8.68,0,0,1,.79,4.64c-.25,4.14.65,8.18,1.5,12.17.74,3.51,3.31,5.65,6.93,6.41a4.9,4.9,0,0,1,1.6.42c.6.38,1.16,1,.33,1.66-.54.42-.89,1.75-1.7,1.08-1-.79-1.84.43-1.95.19-.77-1.57-1.73.64-2.61-.25s-1.64-.15-2.47.38c-.24.16-.95-.61-1.45-.62-3.08,0-6.17,0-9.25.08-.91,1.11-1.69-.08-2.19-.38a1.39,1.39,0,0,1,.26-2.53c4.26-1.21,4.66-4.48,4.51-8a20.23,20.23,0,0,0-.67-2.9c-.2-1,.24-2-.61-3-.47-.56,0-1.83-.14-2.75-.2-1.44.43-2.88-.6-4.39-.75-1.1.33-2.83-.72-4.31-.61-.87.81-2.39-.09-3.6-.23-.31-.5-.59-.75-.89-.23.32-.46.63-.68,1-1,1.42-1,3.16-1.38,4.75a11.71,11.71,0,0,1-.72,1.84,20.46,20.46,0,0,0-2.09,5.84,11.31,11.31,0,0,1-1.87,4.93c-1.27,2-1.3,4.54-3.21,6.14.57,2.19-1.72,3.66-1.48,5.78.11,1-.56,1.48-1.4,1.69a1.77,1.77,0,0,1-1.85-.7,21.8,21.8,0,0,1-3.79-7,65.49,65.49,0,0,0-6.37-12.27,3.84,3.84,0,0,1-.91-2.48,1.28,1.28,0,0,0-.3-.92c-1.67-1.61-2.07-3.91-3.28-5.76a3.66,3.66,0,0,0-.92-.7c-.17.26-.46.52-.47.79-.05,1.3,0,2.6,0,3.9Z"/><path class="cls-1" d="M842,44.52a23.51,23.51,0,0,1,10.57,3.1,13.64,13.64,0,0,0,1.74,1,1.49,1.49,0,0,0,1.19-.13A15.34,15.34,0,0,0,857,47c1.28-1.21,2.73-1.42,3.66-.53.76.73,1,3,.11,3.79-1.41,1.25-1,2.35-.24,3.59s1.4,2.27,2.15,3.37.42,2.7,1.67,3.57c.19.13.48.38.45.51-.7,2.56,1.87,5,.18,7.64-.22.34-.33,1.1-.12,1.31,1.92,2-.61,3.89,0,5.82-1.46.77-.26,2.36-1.13,3.46-.7.89-.75,2.33-1.15,3.41-.6,1.62-2.1,2.91-3.21,4.34-.84,1.08-2.29,1.67-2.55,3.21,0,.19-.29.37-.49.5-1.11.73-8.47,4.15-10.13,4-1.85-.19-3.5.91-5.43.76a13.58,13.58,0,0,1-5.53-1.36c-.86-.46-2-.44-2.85-.87-1.1-.53-2.07-1.7-3.33-1.32a8.86,8.86,0,0,0-3.08,2c-.9.82-1.71,1.18-2.71.33a2.46,2.46,0,0,1-.25-3.11c.12-.2.36-.32.49-.51,1.74-2.47,1.67-3.31-.24-5.6a22.8,22.8,0,0,1-3.65-7.37,27.18,27.18,0,0,1-1.3-9c0-2.86,1-5.43,1.78-8.12,1-3.26,3.46-5.42,4.91-8.27,4-2.74,7.42-6.51,12.69-7.35A40.41,40.41,0,0,1,842,44.52Zm9.32,9.86c-1-1.28-1.37-2.8-3.08-3.51a15.12,15.12,0,0,0-6.57-1.38c-2.75.12-4.25.64-6.11,2.47-.59.58-1.09,1.49-1.79,1.68-1.18.32-1.37,1.28-2,2-1.52,1.54-1.84,3.53-2.64,5.33a20.19,20.19,0,0,0-1.41,4.36,22.79,22.79,0,0,0,0,3.88c0,1.4.28,2.92-.17,4.18s.36,2.21.26,3.37a13.63,13.63,0,0,0,.65,4.29c.28,1.12,2.59,1.65,2.74.78.26-1.57,1.67-2.1,2.35-3.29,1.79-3.1,3.56-6.3,6.32-8.73a7.42,7.42,0,0,0,1-1c3.08-4,5.65-8.47,9.3-12.1A9,9,0,0,0,851.29,54.38Zm-10.41,36.3a11.28,11.28,0,0,0,2,0,33.07,33.07,0,0,0,4.85-1.21c2.24-.84,3.6-2.7,4.9-4.62,2.86-4.19,3.13-9.14,4.26-13.83.1-.43.12-1.12-.13-1.33-.92-.77-.55-1.75-.55-2.62,0-2.62-1-5-1.48-7.55a1.22,1.22,0,0,0-.86-.72,1.52,1.52,0,0,0-1.22.36c-.58.79-.93,1.75-1.48,2.56-3.46,5.16-7.24,10.08-11.14,14.92-2.15,2.68-4,5.62-6.59,7.91-.14.12-.06.45-.16.63-.74,1.38-.43,2.39.84,3.41A9.17,9.17,0,0,0,840.88,90.68Z"/><path class="cls-1" d="M327.41,65.13c2.51,0,5,0,7.52,0,.55,0,1.57-.18,1.58-.32.07-1,1.42-1.8.77-2.87-1.07-1.75-.59-3.3-.09-5.14a7.55,7.55,0,0,0-.84-4.88c-.54-1.06-2.08-1.65-3.22-2.37-.25-.16-.74.08-1.05,0a2.54,2.54,0,0,1-1.19-3c.3-1,1.19-.52,1.79-.53,4.53-.05,9.06,0,13.6,0a6.29,6.29,0,0,0,2.38-.28c1.3-.54,1.41.73,2,1.17s.2,1-.28,1.43A26.35,26.35,0,0,1,348,50.21a5.41,5.41,0,0,0-2.78,5.09,11,11,0,0,0,.07,2.82c.29.88-1.11,1.34-.23,2.38a3.37,3.37,0,0,1,.12,2.72c-1.3,4-.47,8.1-.62,12.14-.06,1.55.53,3.11.64,4.67s-.36,3.44.14,4.93a23.75,23.75,0,0,1,.64,4c.27,1.59,1.6,2.38,2.9,3.17a2.83,2.83,0,0,1,1.31,1.41c.54,1.91-.76,3.34-2.72,2.76s-3.66-1.24-5.52,0c-.18.12-.69-.07-.93-.26a3.08,3.08,0,0,0-3.32-.25c-1.51,1-3,.43-4.45.5a1.69,1.69,0,0,1-1.51-2.45c.65-.92.72-2.25,2.4-2.61,1.91-.41,2.61-2.15,2.52-4.15A22.73,22.73,0,0,1,337.2,81c.33-1.42.76-3.25-.44-4.71.88-1.33.55-2.82.54-4.25a1.69,1.69,0,0,0-1.88-1.92q-8.06,0-16.11,0c-1.34,0-2.07.6-2,1.79.23,3.71-.65,7.47.46,11.15.09.27-.49.71-.46,1a26.33,26.33,0,0,0,.81,6c.3.88,1.85,1.46,2.94,1.93,1.91.84,2.14,1,1.95,2.61-.16,1.25-1.52,2.31-2.45,1.59-1.15-.88-2.24-.57-3.35-.59-3.46-.07-6.92-.09-10.38,0-1.09,0-2.09-.24-2.34-1.11s.47-1.83,1.24-2.47c.61-.51,1.27-1,1.9-1.44a3.5,3.5,0,0,0,1.13-2.39c1.24-5.92.35-11.89.67-17.82.06-1.22-.56-2.59.68-3.63.12-.09.11-.51,0-.68-1.62-2.45.29-5.5-1.38-8a1.35,1.35,0,0,1,.11-1.31c1.71-1.48-.28-2.74-.29-4.11,0-1-1.3-2-2.12-3-.24-.27-.87-.16-1.29-.3-1.29-.46-1.7-1.28-1.46-2.72a1.6,1.6,0,0,1,1.95-1.52c2.17.24,4.46-.7,6.5.7,2.52-.37,5.15.7,7.62-.62.48-.25,1.65-.5,1.75.4S323,47,322,48.18c-.78.94-1.18,2.28-2.42,2.72a3.44,3.44,0,0,0-2.21,3.43c-.18,3-.09,5.91,0,8.87,0,1.37.67,1.9,2.24,1.92C322.17,65.15,324.79,65.13,327.41,65.13Z"/><path class="cls-1" d="M185.56,96.36c-3,.45-6.49-.3-9.86-1.46a12.3,12.3,0,0,1-4.9-2.85c-1.36-1.39-2.5-3.08-4.47-3.8a1.54,1.54,0,0,1-.75-.74c-1.55-3.77-4-7.27-3.64-11.63.06-.87.35-1.88-.63-2.58-.18-.13-.19-.75,0-1,1.27-2.17.43-4.54.71-6.8a9.25,9.25,0,0,1,.74-3.23c1.49-2.71,2.63-5.57,4.72-8a26.44,26.44,0,0,1,12.71-8c4.37-1.34,9.17-2,13.45,1,3.16.71,5.48,2.9,8.09,4.56.89.56,1.33,1.8,2.07,2.65,2.85,3.25,4.32,7.15,5.55,11.19.68,2.2,1.09,6.87.13,8.76-.52,1,.67,1.46.23,2-.91,1.07.12,2.64-.54,3.29-2,2-2.16,4.88-3.94,6.94-1,1.17-1.51,2.79-2.59,3.86-3.72,3.7-8.15,6-13.57,6ZM171.29,71.82A22.34,22.34,0,0,0,174.1,84.7c2.51,4.27,3.67,5.23,8.48,6a8.89,8.89,0,0,1,.91.39,14.92,14.92,0,0,0,7.44-.35c5.92-2.29,7.6-7.48,8.92-12.85A16.28,16.28,0,0,0,199.9,74V70.45c1.85-1.1-.32-2.14-.09-3.32a8.42,8.42,0,0,0-.49-4,23.2,23.2,0,0,0-3.89-7.31A10.24,10.24,0,0,0,189.87,52c-3.62-1.17-4.8-1.56-7.78-.23a13.38,13.38,0,0,0-5.57,4.44C173.36,60.94,170.59,66,171.29,71.82Z"/><path class="cls-1" d="M377.28,96.58c-3.5.43-6.58-.89-9.47-2.41-2.37-1.24-4.86-2.28-6.81-4.36a24.58,24.58,0,0,1-4-6.2c-1.08-2.17-2.36-4.25-2.56-6.76-.05-.74-.65-1.46-.64-2.19,0-1.58-1.24-2.93-.18-4.8.74-1.31.25-3.27.74-5s.93-3.16,1.53-4.7a24,24,0,0,1,6.3-9.48c2.71-2.42,6.16-3.56,9.17-5.44a15.66,15.66,0,0,0,6.29-1.18c1.14-.37,2.7.6,4.09.87s2.44,1.15,3.87,1a2.61,2.61,0,0,1,1.21.47c.59.31,1.13.72,1.74,1A17.43,17.43,0,0,1,396,53.55c2.35,3.42,5.13,6.82,5,11.37,1.11,1.93.62,4,.72,6.09a23.3,23.3,0,0,1-1,6.29c-.56,2.53-2.18,4.58-2.61,7.12-.12.69-.94,1.24-1.37,1.9a24.21,24.21,0,0,1-12,9.23C382.49,96.44,379.79,96.27,377.28,96.58Zm-.51-45.68c-3.26-.62-5.78,1.65-8.38,3.67-2.05,1.6-2.46,4.15-3.61,6.29-1.54,2.84-1,6.1-2.37,8.92.9.53.47,1.48.73,2.19s-1.35,1.09-.2,2c.42.34,0,1.58.17,2.36a31.84,31.84,0,0,0,1.46,5.42,14.55,14.55,0,0,0,3.07,5,38.79,38.79,0,0,0,3.15,2.59,10.08,10.08,0,0,0,2.33,1.26,16.57,16.57,0,0,0,7.9.64,9.71,9.71,0,0,0,4.24-1.74,15.18,15.18,0,0,0,5.57-7.6c1.16-3.5,2.61-7,2.3-10.74-.1-1.21-.69-2.41-.64-3.6A13.7,13.7,0,0,0,391.7,63a23.41,23.41,0,0,0-3.62-7.34C385.47,52.16,381.58,50.84,376.77,50.9Z"/><path class="cls-1" d="M605.09,33.9c1.43,0,2.86.05,4.29,0s2.73.34,4-.63c.62-.46,1.63,0,2.09.79a1.57,1.57,0,0,1-.29,2.17c-.44.39-.77,1-1.28,1.21-5.47,2-6,4.75-7.47,8.49-1.56,4-2.77,8.06-4.47,12-.87,2-2.15,3.89-2.06,6.28,0,1-.66,2.07-1,3.1-.93,2.58-2.72,4.9-2.49,7.84a.55.55,0,0,1,0,.34c-2.25,3.07-2.54,7-4.49,10.22a17.23,17.23,0,0,0-2.66,8.14,2.27,2.27,0,0,1-1,1.66c-.54.27-1.35.65-1.91-.58a87.38,87.38,0,0,1-4.87-12.18c-.42-1.5-1.18-2.85-1.67-4.3-.69-2-1.77-4-2.36-6.12A53,53,0,0,0,575,66.59c-1.25-3-2.43-6.1-3.59-9.17-1.31-3.48-2.19-7.12-4.19-10.34a10.11,10.11,0,0,1-.82-2.85c-.09-.32,0-.78-.25-.95-2.27-1.86-3.67-4.79-7.14-5.19-1.75-.2-2-.92-1.92-2.21s1.32-2.75,2.62-2.65c1.93.14,4-.67,5.82.62.49.33,1.4,0,2.12,0h10a9.71,9.71,0,0,1,1.79,0,1.36,1.36,0,0,1,.69,2.31,6,6,0,0,0-.5.51c-.66.91-2.5.66-2.46,2.1.05,1.7-.65,3.51.44,5.11.61.89-.33,2.14.75,2.89-.24,3.06,1.79,5.42,2.57,8.17a59.5,59.5,0,0,0,4.76,12.59c0,3.08,2.23,5.58,2.2,8.68a3.82,3.82,0,0,0,.71,1.82,6.41,6.41,0,0,0,1.13,1.14,5.14,5.14,0,0,0,1-1.38c1.16-4.12,3-8.06,4-12.18,1.12-4.74,3-9.23,4-14,.41-1.89,1.19-3.76,1.66-5.68a45.21,45.21,0,0,0,1.08-5.22,2.64,2.64,0,0,0-2.32-3.25,3.41,3.41,0,0,1-2-1.24c-.31-.37-.63-1.07-.48-1.41a1.83,1.83,0,0,1,1.32-.94C600.32,33.85,602.7,33.9,605.09,33.9Z"/><path class="cls-1" d="M961.94,65.13c2.12-.2,4.6.49,6.94-.68a3.52,3.52,0,0,1,1.77,0,1.59,1.59,0,0,1,1.5,1.91,13.45,13.45,0,0,0-.72,3.62c0,1.31-1.48,2.22-1.39,3.67S968.9,75.85,968.7,77c-.25,1.47-1.16.83-1.83.93a1.5,1.5,0,0,1-1.78-1.28c-.18-1.34,0-2.71-.74-4-.27-.44,0-1.4-.27-1.61a6.61,6.61,0,0,0-2.47-.9c-1.8-.33-3.73.57-5.49-.61-.23-.16-1,.28-1.4.62a1.65,1.65,0,0,0-.39,1.2c.1,1.11-.42,2.28.55,3.35.36.4.13,1.34.13,2,0,3,0,5.91,0,8.87S956.64,90,959.58,90c1.67,0,3.34,0,5,0,3.46-.11,6-1.94,8.16-4.44.24-2.78,3.13-4,3.83-6.59.14-.5.82-.84,1.23-1.27a1.57,1.57,0,0,1,2.19-.18,1.6,1.6,0,0,1,.73,2.13c-.85,1.27-1,2.71-1.52,4-.6,1.47-1.48,2.73-1.35,4.44,0,.4-.69.89-1.1,1.29A5.44,5.44,0,0,0,975,92.9a2.65,2.65,0,0,1-2.89,2.71c-2.19-.17-4.47.71-6.57-.51-1.1.77-2.36.52-3.57.55-2.44.07-4.82-1.41-7.2-.65-3.59,1.14-7.22.39-10.82.65-.47,0-1,0-1.43,0a1.7,1.7,0,0,1-1.81-1.3,1.8,1.8,0,0,1,.89-2.09c.17-.12.45-.07.64-.17,2.67-1.44,3.78-3.93,4.12-6.68.44-3.54.59-7.13.73-10.7,0-1.2.53-2.55-.63-3.66-.23-.21.11-1.06.25-1.6.08-.31.48-.73.38-.87-1.82-2.7.44-6-1.31-8.7,1.83-2.29-.76-4.48-.16-6.84.37-1.47-.7-2.64-2.16-3.27-.71-.3-1.41-.62-2.09-1a2.52,2.52,0,0,1-1.07-.79,2.76,2.76,0,0,1-.27-1.62c0-.2.75-.38,1.16-.41a14,14,0,0,0,3.51-.19c1.26-.43,2.23.5,3.43.23a16.89,16.89,0,0,1,3.56-.05c1.2,0,2.39.07,3.58,0s2.63.58,3.65-.67c2.83,1.28,5.9-1.27,8.82.61.83.54,2.33.09,3.52.09h3.58c2.68,0,2.6.05,3.43,2.76.19.6-.06.69-.24,1a42.93,42.93,0,0,0-2.89,8c-.44,1.49-1.57,1.52-2.42,2.13-.47.33-2-1.31-1.93-2.25a10.21,10.21,0,0,0-.74-3.62c-.26-1-.84-1.32-1.78-1.76a16.83,16.83,0,0,0-8-1.38,4.31,4.31,0,0,1-1.89-.57,2.77,2.77,0,0,0-3.06.88,3.06,3.06,0,0,0-.93,3c.94,3,.87,4.22,0,7.63-.58,2.21.22,3.21,2.64,3.25C958.55,65.15,960.1,65.13,961.94,65.13Z"/><path class="cls-1" d="M731.7,79.29c0,2.6,0,5.21,0,7.81,0,1.61,2,3.63,3.57,3.56A21.42,21.42,0,0,0,748.41,86c2.12-1.7,3.09-4,4.77-5.86.25-.28.47-.74.79-.81,1.66-.42,2.4.3,2,2-.11.52-.54,1-.68,1.49-.65,2.33-1.59,4.56-2.25,6.9a17.19,17.19,0,0,1-2.6,4.58,2.18,2.18,0,0,1-1.51.58c-2.3.16-4.64-.33-6.87.7a2.33,2.33,0,0,1-1.76,0c-2.33-1.27-4.82-.52-7.23-.65s-5,0-7.51,0c-1,0-1.92,1.55-3,.12-.93,1.11-2.2.55-3.32.59-1.81.06-2.52-.42-2.67-1.5a2.82,2.82,0,0,1,2.23-2.68,3.33,3.33,0,0,0,3-1.37,5.82,5.82,0,0,0,1.22-3.77c-.09-1.28-.44-2.88.17-3.79s-1.29-2.22.47-2.79c-1.67-1,0-2,.13-2.93s-1.23-2-.09-3c.06,0,0-.25,0-.34-1-1.94.19-3.86,0-5.81-.12-1.71-1.2-3.23-.78-5,.28-1.19-.48-2.56.7-3.64a1.32,1.32,0,0,0,0-1.32c-1-.86-.59-2-.62-3-.08-3.33-.59-4.3-3.77-5.12a4.31,4.31,0,0,1-2.25-1.46c-1-1.06-.32-2.89,1-2.83,2.19.11,4.46-.68,6.58.46a2,2,0,0,0,1,.18c1.13-.06,2.21-1.6,3.39-.08,1.19-1,2.62-.54,3.95-.6s2.63,0,3.94,0,2.63-.07,3.93,0c1.12.07,2.35-.48,3.33.64a1.44,1.44,0,0,0,1.34,0c1.29-1.9,3-.06,4.57-.53,1.72-.51,3.08,1.22,3,3.17a9.16,9.16,0,0,1-.73,3.58c-1.28,2.56-1.51,5.71-4.14,7.52-.2.14-.64.27-.73.18-.68-.74-2.16-1.43-1.44-2.5.83-1.23-.31-2-.12-3a2.45,2.45,0,0,0-1.9-2.61,17.33,17.33,0,0,0-5-.76c-2.36-.09-4.73,0-7.1.09-.08,2.33-.08,4.67-.27,7-.09,1.23.34,2.44-.38,3.75-.4.72.27,2,.55,3.06,0,.16.61.26.93.26,3.22,0,6.44.06,9.66,0,.86,0,1.69-.55,2.57-.66,1.65-.2,2.62.5,2.4,2.06-.51,3.64-1.51,7.16-4,10A1.62,1.62,0,0,1,742,77a2,2,0,0,1-.94-1.33,12.72,12.72,0,0,1,0-2.47c0-2.15-.07-2-2.23-2.91-1.29-.52-2.87.52-3.9-.87-.65,1-1.7.5-2.57.71-.27.07-.57.65-.58,1C731.68,73.85,731.7,76.57,731.7,79.29Z"/><path class="cls-1" d="M519.08,44.62c1.67.1,3.33-.17,5.08.55,3.18,1.31,5.87,3.47,6.79,6.53a5.77,5.77,0,0,1,.28,3,31.54,31.54,0,0,1-2.1,5.16c-1.14,2.35-1.65,2.59-4,2.4-.63,0-1.76-1.44-1.45-2,.95-1.68.47-3.47.36-5.14-.09-1.36-.94-2.66-1.47-4,0-.1-.18-.25-.25-.23-2.05.4-3.91-1.62-6-.43s-3.91,3-4.35,5.61a5.05,5.05,0,0,0,.78,3.58c.65,1,1.44,2.25,3.07,1.87,5,2.19,9.8,4.53,13.65,8.46a5.13,5.13,0,0,1,1.83,3.87,1,1,0,0,0,0,.35,14.73,14.73,0,0,1,1.34,3.68c.12,1.29-.61,2.64-.59,4a12.44,12.44,0,0,1-1.89,6.69c-1.93,3.29-4.14,6.29-8.3,7.09a4.19,4.19,0,0,0-2,1.1c-.6.61-.81-.6-1.62,0a3,3,0,0,1-3.83-.37c-.68.57-1.17-1.4-2-.15-.1.13-1.14-.52-1.74-.53-1.8,0-3-1.06-4.09-2.22a8.64,8.64,0,0,0-1-1c-.86-.63-1.87-.79-2.25-2.23-.51-1.94-1.07-3.92-.39-5.69,1-2.67,1.6-5.47,2.63-8.14.12-.31-.09-.84.09-1,.61-.55,1.41-1.47,2-1.37a2.42,2.42,0,0,1,1.48,2.81c-1.45,2.67-.57,5.51-.59,8.24,0,2,3.92,5.35,6.3,5.56a15.48,15.48,0,0,0,5.61-.25c2.92-.85,4-3.48,4.41-6.2a9.22,9.22,0,0,0-1.92-6.66,11.51,11.51,0,0,0-5.14-4c-3.22-1.51-6.63-2.83-9.13-5.64-2-2.24-3.34-4.54-3.1-7.63.13-1.64,0-3.31,0-5a4.47,4.47,0,0,1,.05-1.76c.29-.6,1-1,1.35-1.58s.1-1.14.32-1.63a9,9,0,0,1,1.15-1.66,4.64,4.64,0,0,1,1.13-1.27C512.45,45.69,515.31,43.65,519.08,44.62Z"/><path class="cls-1" d="M689.47,80.47c0,1,.07,1.9,0,2.84-.31,3.6,2.69,5.13,4.62,7.33a32.75,32.75,0,0,0,6-.23c3.09-.66,3.66-1.86,4.55-5a15.12,15.12,0,0,0,.59-5,5.08,5.08,0,0,0-.83-2.82,44.23,44.23,0,0,0-4.27-4.28c-.28-.26-.89-.11-1.3-.28-2.75-1.15-5.64-2-8-4-2.14-1.79-4.06-4.87-4.15-7.47-.06-1.65,0-3.31,0-5a10.62,10.62,0,0,1,5-9.13c.27-.19.68-.25.86-.49,1.56-2.08,4-2,6.18-2.29s4.19-.45,6.14.64a14.54,14.54,0,0,1,1.74,1c.74.57,1.37,1.28,2.08,1.89s2.1,1.16,2.25,1.91a8.65,8.65,0,0,1-.29,4.43,25.11,25.11,0,0,1-2.74,4.89,2.46,2.46,0,0,1-1.42.81c-.57.15-1.19.11-1.17-.79,0-1.42.1-2.85,0-4.26-.22-2.95-4.58-7.41-8.53-4.84a5.51,5.51,0,0,0-2.87,4.6c0,1.8-.52,3.73.7,5.37a3.63,3.63,0,0,0,1.4,1.33c1.76.66,3.3,1.7,5.13,2.31,2.58.87,4.89,2.6,7.18,4.17a5.79,5.79,0,0,1,2.28,2.8c.57,1.9,1.93,3.47,1.93,5.62A28.78,28.78,0,0,1,711,86.16c-1.72,4.92-5.39,7.7-9.93,9.42-3.21,1.22-6.66.61-10.78-.88-.52-.18-1.07-.3-1.59-.47-2.75-.92-4.07-2.94-4.28-5.82-.3-4.17,1.38-7.94,2.18-11.89a1.62,1.62,0,0,1,1.66-1.45c.58,0,1.22-.13,1.21.79C689.46,77.4,689.47,78.93,689.47,80.47Z"/><path class="cls-1" d="M931.32,95.85c-2.16-.3-4.31-.72-6.47-.87s-4.3-.06-6.44,0c-3.37,0-6.67,1.14-10.08.71-.59-.07-1.2.08-1.78,0-1-.17-1.68-.67-1.64-1.82,0-.93-.2-1.58,1.34-1.82,2.49-.38,5.09-4.16,5.1-6.7,0-7.57.3-15.15-.13-22.7-.18-3.2-.4-6.43-.64-9.64-.12-1.6-.52-3.24-2.88-3.52-1.85-.21-2.23-1-2.07-2.4A1.88,1.88,0,0,1,908,45.27c.21,0,.35.39.54.41,1.18.08,2.09,1.15,3.42.75,1.17-.37,2.41-.52,3.61-.79.2,0,.48-.4.53-.36,2.57,1.92,5.08-.67,7.67-.08.92.21,1.62.57,1.8,1.32a2.32,2.32,0,0,1-.61,1.81,5.38,5.38,0,0,1-2.46,1.72,2.59,2.59,0,0,0-2.16,2.3c-.37,2.2-2.22,4.33-.51,6.74.24.35,0,1.09-.16,1.64,0,.19-.46.34-.46.5a12.07,12.07,0,0,0,.28,3.08c.36,1.13-.67,2-.32,3.08s-.2,2,.52,3a4.14,4.14,0,0,1,0,3c-.3,1,.22,2-.43,3.15-.51.88-.15,2.3-.08,3.48,0,.53.45,1,.47,1.57a17.55,17.55,0,0,1-.12,4A3.52,3.52,0,0,0,922.55,90a13.5,13.5,0,0,0,11.19-4.06,30.06,30.06,0,0,0,5.48-7c.28-.5.23-1.22,1-1a2,2,0,0,1,1.16,1.17,8.09,8.09,0,0,1,0,2.82,10.08,10.08,0,0,1-.88,3.53,37.4,37.4,0,0,0-2.68,7.42c-.56,1.83-1.9,2.71-4,2.76-.83,0-1.67,0-2.5,0Z"/><path class="cls-1" d="M875,46c1.74-.44,4,.77,5.87-.66.79,1,1.91.7,2.89.62a20.31,20.31,0,0,0,2.93-.67,2,2,0,0,1,2.39,1.05c.24.47,0,1.15.07,1.74.07.94-.78.59-1.18.88-.56.39-1,.91-1.61,1.29-2.5,1.62-2.91,2.8-2.25,6.06a3.75,3.75,0,0,1,0,2.44c-1.13,1.87-.61,3.85-.63,5.77-.07,7.09,0,14.18,0,21.27a16.63,16.63,0,0,0,0,2.12A2.42,2.42,0,0,0,885.9,90c1.43,0,2.86.09,4.28,0a18.51,18.51,0,0,0,3.63-.71A7.06,7.06,0,0,0,896.49,88c2.19-2,4.44-4,5.57-6.91a23.34,23.34,0,0,1,1-2.41,1.5,1.5,0,0,1,1.82-.74c.85.2,1.52.71,1.41,1.68-.17,1.44-.06,3.12-.78,4.26-1.84,2.93-2.16,6.43-4.08,9.36-1.11,1.69-2,2.58-4,2.46s-4.13.31-6.07-.09c-6.2-1.3-12.45-.32-18.66-.64a15.28,15.28,0,0,0-2.14,0c-2.11.18-2.11.2-2.18-1.37-.06-1.3.45-1.94,2.37-2.13a4.28,4.28,0,0,0,2.76-1.18,4.93,4.93,0,0,0,1.38-3c1.35-6.74.38-13.52.6-20.28.08-2.26.63-4.63-.65-6.8a.78.78,0,0,1,0-.7c1.08-1.88-.06-3.51-.59-5.21,0-.1-.15-.21-.13-.29.81-3.24-1.94-4-3.87-4.95-1.14-.57-1.14-1.12-1.17-2,0-.72.17-1.07,1-1C871.63,46,873.18,46,875,46Z"/><path class="cls-1" d="M419.39,95.65c-4.41,0-8.82,0-13.22,0-1.22,0-1.69-.18-1.61-1.53.13-2,0-2.26,2.19-2.7,2.56-.51,3.32-2.31,3.49-4.34.1-1.18,1.07-2.43.09-3.66,1.08-1.17.66-2.61.7-4,.05-1.53,0-3.07,0-4.6V66.38c0-1.42.09-2.85,0-4.26s-.55-2.63-.66-4,.25-2.91-.1-4.23c-.43-1.56-1.07-3.21-3-3.74a6.22,6.22,0,0,1-2-1.16c-.64-.48-1-2.6-.43-2.78s1.26-1.5,2.23-.42c.17.19.73,0,1,.16,1.15.79,1.79-1.55,3.18-.39.65.55,2,.31,3,.35s2.38,0,3.57,0c1.59-.06,3.22.33,4.74-.65.43-.28,1.41-.35,1.42.86,0,1.45-.06,2.75-1.41,3.7a17.33,17.33,0,0,0-2,2,5.29,5.29,0,0,0-1.6,4c0,6.62,0,13.24,0,19.86,0,.88-.29,1.82.62,2.61A1.82,1.82,0,0,1,419.6,80c-1.36,2.55-.49,5.26-.64,7.88-.11,1.88,1.67,2.89,3.67,2.38A12.68,12.68,0,0,1,425,90c2.09-.11,6.71-1.35,7.64-2.91,1.33-2.22,4.19-3.33,4.46-6.25a3,3,0,0,1,.75-1.45c.27-.33.8-.77,1.09-.7.51.14,1.28.6,1.31,1A6.42,6.42,0,0,1,440,83c-1.46,3.3-2.65,6.71-3.89,10.1-.73,2-1.4,2.54-3.49,2.55Z"/><polygon class="cls-2" points="65.44 45.49 37.28 45.49 18.17 113.98 84.54 113.98 65.44 45.49"/><polygon class="cls-3" points="100.23 46.17 51.42 129.59 2.62 46.17 20.89 46.17 51.36 98.24 81.83 46.17 100.23 46.17"/><path class="cls-1" d="M72.24,39.44a4.21,4.21,0,0,1-2.52,4.21c-1.66.79-10.23,1.84-14.4,1.84H47.46c-4.17,0-12.74-1.05-14.4-1.84a4.21,4.21,0,0,1-2.52-4.21c0-2.1,3.54-7.67,7.11-11.13a51.93,51.93,0,0,1,9.42-7.1c3.24-1.83,2.86-4.91,3.25-7a4.94,4.94,0,0,1,.79-2.3.33.33,0,0,1,.56,0,4.94,4.94,0,0,1,.79,2.3c.39,2.14,0,5.22,3.25,7.05a51.93,51.93,0,0,1,9.42,7.1C68.7,31.77,72.24,37.34,72.24,39.44Z"/><polygon class="cls-2" points="47.53 50.72 17.05 77.06 5.81 67.29 36.29 40.95 47.53 50.72"/><polygon class="cls-2" points="94.98 11.75 64.49 38.09 53.26 28.32 83.74 1.99 94.98 11.75"/><polygon class="cls-2" points="49.44 28.32 38.2 38.09 7.72 11.75 18.95 1.99 49.44 28.32"/><polygon class="cls-2" points="96.89 67.29 85.65 77.06 55.17 50.72 66.4 40.95 96.89 67.29"/><path class="cls-1" d="M55.89,68.77s0-1.59-4.47-1.59S47,68.77,47,68.77v8.94h8.94Z"/></svg>