<svg id="Layer_1" data-name="Layer 1" xmlns="http://www.w3.org/2000/svg" width="3.63cm" height="4.68cm" viewBox="0 0 102.85 132.55"><defs><style>.cls-1{fill:#c23a41;}.cls-1,.cls-2{stroke:#022859;stroke-miterlimit:10;stroke-width:3px;}.cls-2{fill:#fff;}.cls-3{fill:#022859;}</style></defs><polygon class="cls-1" points="65.44 45.49 37.28 45.49 18.17 113.98 84.54 113.98 65.44 45.49"/><polygon class="cls-2" points="100.23 46.17 51.42 129.59 2.62 46.17 20.89 46.17 51.36 98.24 81.83 46.17 100.23 46.17"/><path class="cls-3" d="M72.24,39.44a4.21,4.21,0,0,1-2.52,4.21c-1.66.79-10.23,1.84-14.4,1.84H47.46c-4.17,0-12.74-1.05-14.4-1.84a4.21,4.21,0,0,1-2.52-4.21c0-2.1,3.54-7.67,7.11-11.13a51.93,51.93,0,0,1,9.42-7.1c3.24-1.83,2.86-4.91,3.25-7a4.94,4.94,0,0,1,.79-2.3.33.33,0,0,1,.56,0,4.94,4.94,0,0,1,.79,2.3c.39,2.14,0,5.22,3.25,7.05a51.93,51.93,0,0,1,9.42,7.1C68.7,31.77,72.24,37.34,72.24,39.44Z"/><polygon class="cls-1" points="47.53 50.72 17.05 77.06 5.81 67.29 36.29 40.95 47.53 50.72"/><polygon class="cls-1" points="94.98 11.75 64.49 38.09 53.26 28.32 83.74 1.99 94.98 11.75"/><polygon class="cls-1" points="49.44 28.32 38.2 38.09 7.72 11.75 18.95 1.99 49.44 28.32"/><polygon class="cls-1" points="96.89 67.29 85.65 77.06 55.17 50.72 66.4 40.95 96.89 67.29"/><path class="cls-3" d="M55.89,68.77s0-1.59-4.47-1.59S47,68.77,47,68.77v8.94h8.94Z"/></svg>