<svg id="Layer_1" data-name="Layer 1" xmlns="http://www.w3.org/2000/svg" width="37.17cm" height="4.68cm" viewBox="0 0 1053.76 132.55"><defs><style>.cls-1{fill:#022859;}.cls-2{fill:#c23a41;}.cls-2,.cls-3{stroke:#022859;stroke-miterlimit:10;stroke-width:3px;}.cls-3{fill:#fff;}</style></defs><path class="cls-1" d="M111,93.31V90.54a25.27,25.27,0,0,0,4.55-.44,5.26,5.26,0,0,0,2.62-1.23,4.6,4.6,0,0,0,1.24-2.48,21.18,21.18,0,0,0,.33-4.15V48.34a26.42,26.42,0,0,0-.26-4.11,5,5,0,0,0-1-2.48,4,4,0,0,0-2.22-1.24A26.47,26.47,0,0,0,112.5,40V37.28h21.76q9.83,0,15.28,3.49A11,11,0,0,1,155,50.59a10.73,10.73,0,0,1-3,7.86q-3,3.06-9.57,5v.29q2.25.23,3.93.51a27.64,27.64,0,0,1,3,.69,15.18,15.18,0,0,1,2.44,1A21.13,21.13,0,0,1,154,67.26q6.47,4.58,6.47,11.49a12.94,12.94,0,0,1-2.14,7.17,14.71,14.71,0,0,1-6,5.2,14.37,14.37,0,0,1-2.54,1.06,20.86,20.86,0,0,1-3.06.65c-1.16.17-2.51.29-4,.37s-3.33.11-5.42.11ZM131.49,62c1.5,0,2.77,0,3.79-.08a21.62,21.62,0,0,0,2.62-.25,9.38,9.38,0,0,0,1.92-.51,8.9,8.9,0,0,0,1.71-.91,8.46,8.46,0,0,0,3.31-3.49,12.21,12.21,0,0,0,1-5.31c0-3.84-.94-6.59-2.8-8.26s-4.8-2.51-8.77-2.51h-5.61a1.09,1.09,0,0,0-1.23,1.23V62Zm6,28.16q13.17,0,13.17-11.28,0-8.22-6.77-11.5c-.77-.34-1.53-.63-2.25-.87a13.49,13.49,0,0,0-2.55-.55c-1-.12-2.12-.2-3.46-.25s-3-.08-4.91-.08h-3.27V81.88c0,3,.77,5.08,2.33,6.37S133.87,90.18,137.46,90.18Z"/><path class="cls-1" d="M191.73,47.73a25.06,25.06,0,0,1,9.58,1.81,24.16,24.16,0,0,1,7.72,5,22.88,22.88,0,0,1,7,16.65,21.14,21.14,0,0,1-1.9,8.88A22.9,22.9,0,0,1,209,87.26a24.62,24.62,0,0,1-7.72,4.85,26.35,26.35,0,0,1-19,0,24.51,24.51,0,0,1-7.72-4.85A22.9,22.9,0,0,1,169.32,80a21,21,0,0,1-1.9-8.88,22.66,22.66,0,0,1,1.87-9.23,23,23,0,0,1,5.14-7.42,24.16,24.16,0,0,1,7.72-5A25.06,25.06,0,0,1,191.73,47.73Zm0,43a17,17,0,0,0,6.92-1.35,14.67,14.67,0,0,0,5.26-3.85,17.44,17.44,0,0,0,3.36-6.11,25.86,25.86,0,0,0,1.17-8,28.44,28.44,0,0,0-1.17-8.45,19.11,19.11,0,0,0-3.33-6.43,14.61,14.61,0,0,0-5.26-4.09,17.6,17.6,0,0,0-13.9,0,14.61,14.61,0,0,0-5.26,4.09,19.11,19.11,0,0,0-3.33,6.43A28.44,28.44,0,0,0,175,71.34a25.86,25.86,0,0,0,1.17,8,17.71,17.71,0,0,0,3.33,6.11,14.33,14.33,0,0,0,5.26,3.85A17.2,17.2,0,0,0,191.73,90.68Z"/><path class="cls-1" d="M257.06,59.59a11.13,11.13,0,0,1-2.81,7.77q-2.81,3.11-8.94,4.15l12.92,15.54a9.61,9.61,0,0,0,3.47,2.78,18.5,18.5,0,0,0,4.53,1.26v2.22H255L240.64,75a11.65,11.65,0,0,0-1.43-1.58,5.73,5.73,0,0,0-1.41-.91,5.24,5.24,0,0,0-1.69-.4q-1-.09-2.31-.09V84.13a20,20,0,0,0,.26,3.54,3.77,3.77,0,0,0,1.11,2.13,4.73,4.73,0,0,0,2.46,1,26.58,26.58,0,0,0,4.24.27v2.22H221.24V91.09a16.87,16.87,0,0,0,3.3-.36,3.92,3.92,0,0,0,2-1,3.6,3.6,0,0,0,.93-2,18.66,18.66,0,0,0,.24-3.33V57.19a20.85,20.85,0,0,0-.21-3.3,4,4,0,0,0-.82-2,3.15,3.15,0,0,0-1.78-1,21,21,0,0,0-3-.38V48.31h18.35c5.38,0,9.53,1,12.48,3A9.48,9.48,0,0,1,257.06,59.59ZM233.8,69.06H238q5.85,0,8.68-2.14t2.83-7q0-4.73-2.25-6.78c-1.5-1.36-3.84-2-7-2h-5.38a.88.88,0,0,0-1,1Z"/><path class="cls-1" d="M305.21,93.89,277.45,57.31h-.23v25a40,40,0,0,0,.2,4.62,6.23,6.23,0,0,0,.82,2.63A2.85,2.85,0,0,0,280,90.73a14,14,0,0,0,3,.36v2.22H267.28V91.09a16,16,0,0,0,3.31-.38,3.58,3.58,0,0,0,2-1.2,5.14,5.14,0,0,0,.94-2.49,32.78,32.78,0,0,0,.23-4.35V59a34.54,34.54,0,0,0-.2-4.06,6.08,6.08,0,0,0-.82-2.55A3.28,3.28,0,0,0,270.91,51a13,13,0,0,0-3-.5V48.31h11.57L305,82.38h.24v-23a39.73,39.73,0,0,0-.21-4.59,6.1,6.1,0,0,0-.82-2.66,2.9,2.9,0,0,0-1.75-1.23,14.73,14.73,0,0,0-3-.35V48.31h15.72v2.22a16,16,0,0,0-3.3.38,3.61,3.61,0,0,0-2,1.2,5,5,0,0,0-.93,2.51,31.17,31.17,0,0,0-.24,4.33V93.89Z"/><path class="cls-1" d="M362.35,84a21.71,21.71,0,0,0,.24,3.6,4,4,0,0,0,.9,2.1,3.62,3.62,0,0,0,1.93,1,16.87,16.87,0,0,0,3.3.36v2.22H349.79V91.09a16.87,16.87,0,0,0,3.3-.36,3.92,3.92,0,0,0,2-1,3.6,3.6,0,0,0,.93-2,18.66,18.66,0,0,0,.24-3.33V71.74H332.55V84a21.71,21.71,0,0,0,.24,3.6,4,4,0,0,0,.9,2.1,3.62,3.62,0,0,0,1.93,1,16.87,16.87,0,0,0,3.3.36v2.22H320V91.09a16.87,16.87,0,0,0,3.3-.36,3.92,3.92,0,0,0,2-1,3.6,3.6,0,0,0,.93-2,18.66,18.66,0,0,0,.24-3.33V57.19a20.85,20.85,0,0,0-.21-3.3,4,4,0,0,0-.82-2,3.12,3.12,0,0,0-1.78-1,21,21,0,0,0-3-.38V48.31h17.77v2.22a14.73,14.73,0,0,0-3,.35,3.28,3.28,0,0,0-1.76,1,4.39,4.39,0,0,0-.81,2.11,24.06,24.06,0,0,0-.21,3.56V68.82h23.67V57.19a20.85,20.85,0,0,0-.21-3.3,4,4,0,0,0-.81-2,3.18,3.18,0,0,0-1.79-1,21,21,0,0,0-3-.38V48.31h17.76v2.22a14.73,14.73,0,0,0-3,.35,3.25,3.25,0,0,0-1.75,1,4.29,4.29,0,0,0-.82,2.11,24.06,24.06,0,0,0-.21,3.56Z"/><path class="cls-1" d="M398.23,47.73a25.06,25.06,0,0,1,9.58,1.81,24.05,24.05,0,0,1,7.72,5,23,23,0,0,1,5.14,7.42,22.66,22.66,0,0,1,1.87,9.23,21,21,0,0,1-1.9,8.88,22.9,22.9,0,0,1-5.17,7.22,24.58,24.58,0,0,1-7.71,4.85,26.37,26.37,0,0,1-19.05,0A24.62,24.62,0,0,1,381,87.26,22.9,22.9,0,0,1,375.82,80a21.14,21.14,0,0,1-1.9-8.88,22.83,22.83,0,0,1,7-16.65,24,24,0,0,1,7.71-5A25.06,25.06,0,0,1,398.23,47.73Zm0,43a17.07,17.07,0,0,0,6.93-1.35,14.72,14.72,0,0,0,5.25-3.85,17.13,17.13,0,0,0,3.36-6.11,25.86,25.86,0,0,0,1.17-8,28.44,28.44,0,0,0-1.17-8.45,18.76,18.76,0,0,0-3.33-6.43,14.67,14.67,0,0,0-5.25-4.09,17.63,17.63,0,0,0-13.91,0A14.61,14.61,0,0,0,386,56.46a19.11,19.11,0,0,0-3.33,6.43,28.44,28.44,0,0,0-1.17,8.45,25.86,25.86,0,0,0,1.17,8A17.71,17.71,0,0,0,386,85.48a14.33,14.33,0,0,0,5.26,3.85A17.2,17.2,0,0,0,398.23,90.68Z"/><path class="cls-1" d="M465.49,93.31H427.74V91.09a16.87,16.87,0,0,0,3.3-.36,3.92,3.92,0,0,0,2-1,3.6,3.6,0,0,0,.93-2,18.66,18.66,0,0,0,.24-3.33V57.19a20.85,20.85,0,0,0-.21-3.3,4,4,0,0,0-.81-2,3.18,3.18,0,0,0-1.79-1,21,21,0,0,0-3-.38V48.31h17.77v2.22a14.73,14.73,0,0,0-3,.35,3.21,3.21,0,0,0-1.75,1,4.29,4.29,0,0,0-.82,2.11,24.06,24.06,0,0,0-.21,3.56V82.79a13.41,13.41,0,0,0,.5,4,4.6,4.6,0,0,0,1.69,2.4,7.57,7.57,0,0,0,3.19,1.16,31.5,31.5,0,0,0,5,.33,35.28,35.28,0,0,0,5.61-.38A10.42,10.42,0,0,0,460.14,89a6.89,6.89,0,0,0,2.46-2.69,19.06,19.06,0,0,0,1.54-4.47h2.22Z"/><path class="cls-1" d="M499.73,82.85l15.19-34.54H528v2.22a10.15,10.15,0,0,0-3,.47,3.34,3.34,0,0,0-1.75,1.37,6.47,6.47,0,0,0-.82,2.66,36.68,36.68,0,0,0-.2,4.33v22.9a35,35,0,0,0,.23,4.62,5.92,5.92,0,0,0,.91,2.63,3.12,3.12,0,0,0,1.92,1.22,16.87,16.87,0,0,0,3.3.36v2.22H509.66V91.09a15.77,15.77,0,0,0,3.3-.38,3.61,3.61,0,0,0,2-1.2,5.14,5.14,0,0,0,.94-2.49,32.78,32.78,0,0,0,.23-4.35V55.56h-.58L498.44,93.89h-1.28L480.39,55.56h-.24v26.7a34.69,34.69,0,0,0,.24,4.62,5.8,5.8,0,0,0,.9,2.63,3.14,3.14,0,0,0,1.93,1.22,16.87,16.87,0,0,0,3.3.36v2.22h-16.3V91.09a16,16,0,0,0,3.3-.38,3.61,3.61,0,0,0,2-1.2,5,5,0,0,0,.93-2.49,30.89,30.89,0,0,0,.24-4.35V59a32.23,32.23,0,0,0-.21-4.06,5.94,5.94,0,0,0-.82-2.55A3.21,3.21,0,0,0,473.84,51a12.87,12.87,0,0,0-3-.5V48.31h14L499.5,82.85Z"/><path class="cls-1" d="M534.67,79.57h2.16a14.77,14.77,0,0,0,1.55,4.74,12.11,12.11,0,0,0,6.84,5.81,14.52,14.52,0,0,0,4.88.79,10.46,10.46,0,0,0,6.83-2,6.76,6.76,0,0,0,2.52-5.55,6.6,6.6,0,0,0-2.17-5A15.08,15.08,0,0,0,554.16,76a52.74,52.74,0,0,0-4.94-2.4,54.38,54.38,0,0,1-6.08-3,17.45,17.45,0,0,1-3.91-3,9.5,9.5,0,0,1-2.08-3.36,12.69,12.69,0,0,1-.61-4.06,12.48,12.48,0,0,1,1-5,11.56,11.56,0,0,1,2.71-3.95,12.31,12.31,0,0,1,4.15-2.57,14.86,14.86,0,0,1,5.26-.9,13.65,13.65,0,0,1,4.79.82,16.28,16.28,0,0,1,4.5,2.63l1.52-2.63h1.34l.65,11.62h-2.16a14.7,14.7,0,0,0-4.07-7.12,9.33,9.33,0,0,0-6.39-2.34,8.56,8.56,0,0,0-5.67,1.75A5.83,5.83,0,0,0,542,57.19a6.7,6.7,0,0,0,.47,2.55A6.43,6.43,0,0,0,544,61.9a15.22,15.22,0,0,0,2.75,2,36.72,36.72,0,0,0,4.2,2.14,74.81,74.81,0,0,1,7.19,3.59A23,23,0,0,1,562.72,73a9.77,9.77,0,0,1,2.39,3.51,11.41,11.41,0,0,1,.71,4.12,12.24,12.24,0,0,1-4.44,9.58,15.38,15.38,0,0,1-5,2.72,20.51,20.51,0,0,1-6.43,1,17.84,17.84,0,0,1-6-.94,18.35,18.35,0,0,1-5.4-3.15l-1.64,2.86h-1.34Z"/><path class="cls-1" d="M617.72,82.17l12.81-31.58a43.5,43.5,0,0,0,1.53-4.22,10.22,10.22,0,0,0,.44-2.76,3.1,3.1,0,0,0-1.21-2.77c-.8-.53-2.29-.8-4.47-.8V37.28H644.5V40a19,19,0,0,0-2.87.58,7.39,7.39,0,0,0-2.11,1,6.41,6.41,0,0,0-1.6,1.71,16.69,16.69,0,0,0-1.35,2.59L616.85,94H614.3L595.53,48.7a39.5,39.5,0,0,0-1.85-3.78,11,11,0,0,0-2-2.62,7.21,7.21,0,0,0-2.47-1.53,12.27,12.27,0,0,0-3.27-.66V37.28h23.72v2.83a24.19,24.19,0,0,0-3.31.19,5.82,5.82,0,0,0-2,.58,2.31,2.31,0,0,0-1,1,2.83,2.83,0,0,0-.29,1.31,9.23,9.23,0,0,0,.36,2.36,37.56,37.56,0,0,0,1.38,3.9Z"/><path class="cls-1" d="M672.44,77H656.83c-.66,1.6-1.22,3-1.69,4.24s-.85,2.29-1.14,3.18a18.12,18.12,0,0,0-.61,2.28,8.47,8.47,0,0,0-.18,1.52,2.38,2.38,0,0,0,1,2.25,7.34,7.34,0,0,0,3.51.62v2.22h-14.2V91.09a15.85,15.85,0,0,0,2.31-.47,5.9,5.9,0,0,0,1.69-.82,5.14,5.14,0,0,0,1.29-1.37,13.73,13.73,0,0,0,1.08-2.08l15.19-38h2.51l13.27,33q1.33,3.27,2.34,5.23a13,13,0,0,0,1.92,3,4.35,4.35,0,0,0,2,1.28,9.83,9.83,0,0,0,2.6.3v2.28h-19V91a10.65,10.65,0,0,0,4.27-.59,2,2,0,0,0,1.16-1.93c0-.39,0-.75,0-1.08a8.49,8.49,0,0,0-.21-1.08A12.66,12.66,0,0,0,675.5,85c-.17-.49-.4-1.06-.67-1.73ZM658,74.08h13.33l-6.49-17.24Z"/><path class="cls-1" d="M729.41,93.31H691.66V91.09a16.87,16.87,0,0,0,3.3-.36,3.92,3.92,0,0,0,2-1,3.6,3.6,0,0,0,.93-2,18.66,18.66,0,0,0,.24-3.33V57.19a20.85,20.85,0,0,0-.21-3.3,4,4,0,0,0-.82-2,3.15,3.15,0,0,0-1.78-1,21,21,0,0,0-3-.38V48.31H710v2.22a14.73,14.73,0,0,0-3,.35,3.28,3.28,0,0,0-1.76,1,4.39,4.39,0,0,0-.81,2.11,24.06,24.06,0,0,0-.21,3.56V82.79a13.41,13.41,0,0,0,.5,4,4.54,4.54,0,0,0,1.69,2.4,7.57,7.57,0,0,0,3.19,1.16,31.5,31.5,0,0,0,5,.33,35.28,35.28,0,0,0,5.61-.38A10.42,10.42,0,0,0,724.06,89a6.79,6.79,0,0,0,2.45-2.69,18.59,18.59,0,0,0,1.55-4.47h2.22Z"/><path class="cls-1" d="M734.9,79.57h2.16a14.53,14.53,0,0,0,1.55,4.74,12.11,12.11,0,0,0,6.84,5.81,14.46,14.46,0,0,0,4.87.79,10.47,10.47,0,0,0,6.84-2,6.75,6.75,0,0,0,2.51-5.55,6.55,6.55,0,0,0-2.16-5A15.17,15.17,0,0,0,754.38,76a52.42,52.42,0,0,0-4.93-2.4,53.52,53.52,0,0,1-6.08-3,17.45,17.45,0,0,1-3.91-3,9.5,9.5,0,0,1-2.08-3.36,12.42,12.42,0,0,1-.61-4.06,12.65,12.65,0,0,1,1-5,11.58,11.58,0,0,1,2.72-3.95,12.31,12.31,0,0,1,4.15-2.57,14.82,14.82,0,0,1,5.26-.9,13.65,13.65,0,0,1,4.79.82,16.28,16.28,0,0,1,4.5,2.63l1.52-2.63H762l.64,11.62h-2.16a14.69,14.69,0,0,0-4.06-7.12,9.36,9.36,0,0,0-6.4-2.34,8.6,8.6,0,0,0-5.67,1.75,5.85,5.85,0,0,0-2.1,4.73,6.7,6.7,0,0,0,.47,2.55,6.43,6.43,0,0,0,1.52,2.16,15.11,15.11,0,0,0,2.74,2,37,37,0,0,0,4.21,2.14,76,76,0,0,1,7.19,3.59A23,23,0,0,1,763,73a10,10,0,0,1,2.39,3.51,11.41,11.41,0,0,1,.7,4.12,12.24,12.24,0,0,1-4.44,9.58,15.33,15.33,0,0,1-5,2.72,20.51,20.51,0,0,1-6.43,1,17.8,17.8,0,0,1-6-.94,18.52,18.52,0,0,1-5.41-3.15l-1.63,2.86h-1.35Z"/><path class="cls-1" d="M784.39,68.59a31.24,31.24,0,0,0,5.29-.38,9.06,9.06,0,0,0,3.39-1.2,4.69,4.69,0,0,0,1.81-2.1,7.64,7.64,0,0,0,.55-3h2.05V77.82h-2.05a8.46,8.46,0,0,0-.49-3,4.51,4.51,0,0,0-1.76-2.13,9.62,9.62,0,0,0-3.38-1.29,28,28,0,0,0-5.41-.43v13.2a9.3,9.3,0,0,0,.47,3.19,4.27,4.27,0,0,0,1.6,2,7.4,7.4,0,0,0,3,1.11,27.36,27.36,0,0,0,4.62.32,26.36,26.36,0,0,0,5.26-.44A9.09,9.09,0,0,0,803,88.86a7.65,7.65,0,0,0,2.34-2.77,18.88,18.88,0,0,0,1.46-4.3H809l-.88,11.52H771.83V91.09a16.87,16.87,0,0,0,3.3-.36,3.92,3.92,0,0,0,2-1,3.74,3.74,0,0,0,.93-2,18.79,18.79,0,0,0,.23-3.33V57.19a21,21,0,0,0-.2-3.3,4,4,0,0,0-.82-2,3.15,3.15,0,0,0-1.78-1,21,21,0,0,0-3-.38V48.31h33.78l.52,10.29h-2a12.34,12.34,0,0,0-1.14-3.83,6.33,6.33,0,0,0-2.16-2.37,9.32,9.32,0,0,0-3.48-1.22,30.72,30.72,0,0,0-5.09-.36h-7.42a.88.88,0,0,0-1,1Z"/><path class="cls-1" d="M843.76,82.85,859,48.31H872v2.22a10.15,10.15,0,0,0-3,.47,3.34,3.34,0,0,0-1.75,1.37,6.47,6.47,0,0,0-.82,2.66,36.38,36.38,0,0,0-.21,4.33v22.9a34.69,34.69,0,0,0,.24,4.62,5.93,5.93,0,0,0,.9,2.63,3.14,3.14,0,0,0,1.93,1.22,16.87,16.87,0,0,0,3.3.36v2.22H853.69V91.09a16,16,0,0,0,3.3-.38,3.61,3.61,0,0,0,2-1.2,5.14,5.14,0,0,0,.94-2.49,32.78,32.78,0,0,0,.23-4.35V55.56h-.59L842.47,93.89h-1.28L824.42,55.56h-.24v26.7a34.69,34.69,0,0,0,.24,4.62,5.8,5.8,0,0,0,.9,2.63,3.14,3.14,0,0,0,1.93,1.22,16.87,16.87,0,0,0,3.3.36v2.22h-16.3V91.09a16,16,0,0,0,3.3-.38,3.61,3.61,0,0,0,2-1.2,5,5,0,0,0,.93-2.49,30.89,30.89,0,0,0,.24-4.35V59a32.23,32.23,0,0,0-.21-4.06,5.94,5.94,0,0,0-.82-2.55A3.24,3.24,0,0,0,817.87,51a12.87,12.87,0,0,0-3-.5V48.31h14l14.72,34.54Z"/><path class="cls-1" d="M902.13,47.73a25.89,25.89,0,0,1,6.9.9,24.33,24.33,0,0,1,6.07,2.6l5.09-6.42h4l-6.49,8.24a23.36,23.36,0,0,1,6.37,7.85,22.5,22.5,0,0,1,2.34,10.26,21,21,0,0,1-1.9,8.88,22.74,22.74,0,0,1-5.17,7.22,24.58,24.58,0,0,1-7.71,4.85,25.32,25.32,0,0,1-9.53,1.78,26,26,0,0,1-7.27-1,25.43,25.43,0,0,1-6.4-2.87l-6.31,8h-4L886,88.22a22.61,22.61,0,0,1-6-7.54,21.23,21.23,0,0,1-2.17-9.52,22.83,22.83,0,0,1,7-16.65,24,24,0,0,1,7.71-5A25.06,25.06,0,0,1,902.13,47.73ZM885.42,71.34q0,8,3.56,13l23.5-29.75a15.21,15.21,0,0,0-10.35-3.62,16.42,16.42,0,0,0-7,1.43,14.61,14.61,0,0,0-5.26,4.09,19.11,19.11,0,0,0-3.33,6.43A28.44,28.44,0,0,0,885.42,71.34Zm16.71,19.34a17.07,17.07,0,0,0,6.93-1.35,14.75,14.75,0,0,0,5.26-3.85,17.44,17.44,0,0,0,3.36-6.11,26.17,26.17,0,0,0,1.16-8,29.47,29.47,0,0,0-1.05-8.19,18.57,18.57,0,0,0-3.09-6.25L891.09,86.7A15.67,15.67,0,0,0,902.13,90.68Z"/><path class="cls-1" d="M969.39,93.31H931.64V91.09a16.87,16.87,0,0,0,3.3-.36,3.92,3.92,0,0,0,2-1,3.68,3.68,0,0,0,.94-2,19.8,19.8,0,0,0,.23-3.33V57.19a20.85,20.85,0,0,0-.21-3.3,4,4,0,0,0-.81-2,3.18,3.18,0,0,0-1.79-1,21,21,0,0,0-3-.38V48.31H950v2.22a14.73,14.73,0,0,0-3,.35,3.25,3.25,0,0,0-1.75,1,4.29,4.29,0,0,0-.82,2.11,24.06,24.06,0,0,0-.21,3.56V82.79a13.41,13.41,0,0,0,.5,4,4.56,4.56,0,0,0,1.7,2.4,7.53,7.53,0,0,0,3.18,1.16,31.55,31.55,0,0,0,5,.33,35.06,35.06,0,0,0,5.6-.38A10.42,10.42,0,0,0,964,89a6.89,6.89,0,0,0,2.46-2.69,19,19,0,0,0,1.55-4.47h2.22Z"/><path class="cls-1" d="M1011.87,93.31H974.12V91.09a16.87,16.87,0,0,0,3.3-.36,3.92,3.92,0,0,0,2-1,3.6,3.6,0,0,0,.93-2,18.66,18.66,0,0,0,.24-3.33V57.19a20.85,20.85,0,0,0-.21-3.3,4,4,0,0,0-.81-2,3.18,3.18,0,0,0-1.79-1,21,21,0,0,0-3-.38V48.31h17.76v2.22a14.73,14.73,0,0,0-3,.35,3.25,3.25,0,0,0-1.75,1,4.29,4.29,0,0,0-.82,2.11,24.06,24.06,0,0,0-.21,3.56V82.79a13.41,13.41,0,0,0,.5,4,4.56,4.56,0,0,0,1.7,2.4,7.48,7.48,0,0,0,3.18,1.16,31.55,31.55,0,0,0,5,.33,35.06,35.06,0,0,0,5.6-.38,10.42,10.42,0,0,0,3.83-1.35,6.89,6.89,0,0,0,2.46-2.69,19,19,0,0,0,1.55-4.47h2.22Z"/><path class="cls-1" d="M1029.16,68.59a31.15,31.15,0,0,0,5.29-.38,9.06,9.06,0,0,0,3.39-1.2,4.69,4.69,0,0,0,1.81-2.1,7.64,7.64,0,0,0,.56-3h2V77.82h-2a8.46,8.46,0,0,0-.5-3,4.49,4.49,0,0,0-1.75-2.13,9.76,9.76,0,0,0-3.39-1.29,27.81,27.81,0,0,0-5.41-.43v13.2a9.3,9.3,0,0,0,.47,3.19,4.23,4.23,0,0,0,1.61,2,7.34,7.34,0,0,0,3,1.11,27.16,27.16,0,0,0,4.61.32,26.3,26.3,0,0,0,5.26-.44,9.2,9.2,0,0,0,3.63-1.49,7.53,7.53,0,0,0,2.33-2.77,18.4,18.4,0,0,0,1.46-4.3h2.22l-.87,11.52H1016.6V91.09a16.87,16.87,0,0,0,3.3-.36,3.92,3.92,0,0,0,2-1,3.6,3.6,0,0,0,.93-2,18.66,18.66,0,0,0,.24-3.33V57.19a20.85,20.85,0,0,0-.21-3.3,4,4,0,0,0-.81-2,3.18,3.18,0,0,0-1.79-1,21,21,0,0,0-3-.38V48.31H1051l.53,10.29h-2a11.82,11.82,0,0,0-1.14-3.83,6.33,6.33,0,0,0-2.16-2.37,9.32,9.32,0,0,0-3.48-1.22,30.59,30.59,0,0,0-5.08-.36h-7.42a.89.89,0,0,0-1,1Z"/><polygon class="cls-2" points="65.44 45.49 37.28 45.49 18.17 113.98 84.54 113.98 65.44 45.49"/><polygon class="cls-3" points="100.23 46.17 51.42 129.59 2.62 46.17 20.89 46.17 51.36 98.24 81.83 46.17 100.23 46.17"/><path class="cls-1" d="M72.24,39.44a4.21,4.21,0,0,1-2.52,4.21c-1.66.79-10.23,1.84-14.4,1.84H47.46c-4.17,0-12.74-1.05-14.4-1.84a4.21,4.21,0,0,1-2.52-4.21c0-2.1,3.54-7.67,7.11-11.13a51.93,51.93,0,0,1,9.42-7.1c3.24-1.83,2.86-4.91,3.25-7a4.94,4.94,0,0,1,.79-2.3.33.33,0,0,1,.56,0,4.94,4.94,0,0,1,.79,2.3c.39,2.14,0,5.22,3.25,7.05a51.93,51.93,0,0,1,9.42,7.1C68.7,31.77,72.24,37.34,72.24,39.44Z"/><polygon class="cls-2" points="47.53 50.72 17.05 77.06 5.81 67.29 36.29 40.95 47.53 50.72"/><polygon class="cls-2" points="94.98 11.75 64.49 38.09 53.26 28.32 83.74 1.99 94.98 11.75"/><polygon class="cls-2" points="49.44 28.32 38.2 38.09 7.72 11.75 18.95 1.99 49.44 28.32"/><polygon class="cls-2" points="96.89 67.29 85.65 77.06 55.17 50.72 66.4 40.95 96.89 67.29"/><path class="cls-1" d="M55.89,68.77s0-1.59-4.47-1.59S47,68.77,47,68.77v8.94h8.94Z"/></svg>