<svg id="Layer_1" data-name="Layer 1" xmlns="http://www.w3.org/2000/svg" width="17.81cm" height="9.86cm" viewBox="0 0 504.75 279.45"><defs><style>.cls-1{fill:#022859;}.cls-2{fill:#c23a41;}.cls-2,.cls-3{stroke:#022859;stroke-miterlimit:10;stroke-width:3px;}.cls-3{fill:#fff;}</style></defs><path class="cls-1" d="M25,198.78V196a25.36,25.36,0,0,0,4.55-.44,5.34,5.34,0,0,0,2.62-1.23,4.7,4.7,0,0,0,1.23-2.48,21.18,21.18,0,0,0,.33-4.15v-33.9a28.18,28.18,0,0,0-.25-4.12,5.13,5.13,0,0,0-1-2.47A3.91,3.91,0,0,0,30.23,146a25.25,25.25,0,0,0-3.79-.47v-2.77H48.2q9.82,0,15.28,3.5a11,11,0,0,1,5.46,9.82,10.73,10.73,0,0,1-3,7.86q-3,3.06-9.57,5v.29q2.25.22,3.93.51a27.64,27.64,0,0,1,3,.69,15.33,15.33,0,0,1,2.44,1,25.28,25.28,0,0,1,2.22,1.31q6.48,4.59,6.48,11.5a13,13,0,0,1-2.15,7.17,14.62,14.62,0,0,1-6,5.2,14.78,14.78,0,0,1-2.55,1.06,21.63,21.63,0,0,1-3.06.65c-1.16.17-2.51.29-4,.37s-3.33.1-5.42.1ZM45.43,167.5c1.51,0,2.77,0,3.79-.08a23.61,23.61,0,0,0,2.62-.25,8.54,8.54,0,0,0,3.64-1.42,8.65,8.65,0,0,0,3.31-3.49,12.39,12.39,0,0,0,1-5.32q0-5.74-2.8-8.26t-8.77-2.5H42.6a1.09,1.09,0,0,0-1.24,1.23V167.5Zm6,28.16q13.17,0,13.17-11.28,0-8.24-6.76-11.5c-.78-.34-1.53-.63-2.26-.87a12.75,12.75,0,0,0-2.55-.55c-1-.12-2.12-.21-3.45-.25s-3-.08-4.92-.08H41.36v16.23q0,4.44,2.33,6.37C45.24,195,47.81,195.66,51.4,195.66Z"/><path class="cls-1" d="M105.67,153.21a25.15,25.15,0,0,1,9.59,1.81,24.15,24.15,0,0,1,7.71,5,23.17,23.17,0,0,1,5.14,7.43,22.66,22.66,0,0,1,1.87,9.23,21,21,0,0,1-1.9,8.88,22.74,22.74,0,0,1-5.17,7.22,24.58,24.58,0,0,1-7.71,4.85,26.37,26.37,0,0,1-19,0,24.74,24.74,0,0,1-7.72-4.85,22.9,22.9,0,0,1-5.17-7.22,21.19,21.19,0,0,1-1.89-8.88,22.82,22.82,0,0,1,7-16.66,24.15,24.15,0,0,1,7.71-5A25.06,25.06,0,0,1,105.67,153.21Zm0,42.95a17.07,17.07,0,0,0,6.93-1.35,14.66,14.66,0,0,0,5.26-3.86,17.3,17.3,0,0,0,3.36-6.1,26.24,26.24,0,0,0,1.16-8,28.75,28.75,0,0,0-1.16-8.44,19.11,19.11,0,0,0-3.33-6.43,14.79,14.79,0,0,0-5.26-4.09,17.63,17.63,0,0,0-13.91,0,14.61,14.61,0,0,0-5.26,4.09,19.11,19.11,0,0,0-3.33,6.43A28.41,28.41,0,0,0,89,176.81a25.93,25.93,0,0,0,1.17,8,17.57,17.57,0,0,0,3.33,6.1,14.24,14.24,0,0,0,5.26,3.86A17.2,17.2,0,0,0,105.67,196.16Z"/><path class="cls-1" d="M171,165.07a11.12,11.12,0,0,1-2.8,7.77q-2.8,3.09-8.94,4.15l12.91,15.54a9.56,9.56,0,0,0,3.48,2.78,17.85,17.85,0,0,0,4.53,1.25v2.22H168.9l-14.32-18.34a10.5,10.5,0,0,0-1.43-1.58,5.87,5.87,0,0,0-1.4-.91,5.58,5.58,0,0,0-1.7-.41c-.64,0-1.41-.08-2.3-.08v12.15a19.12,19.12,0,0,0,.26,3.54,3.66,3.66,0,0,0,1.11,2.13,4.74,4.74,0,0,0,2.45,1,26.85,26.85,0,0,0,4.24.26v2.22H135.18v-2.22a16.23,16.23,0,0,0,3.3-.35,3.92,3.92,0,0,0,2-1,3.68,3.68,0,0,0,.94-2,19.8,19.8,0,0,0,.23-3.33V162.67a20.85,20.85,0,0,0-.21-3.3,4,4,0,0,0-.81-2,3.23,3.23,0,0,0-1.79-1,21,21,0,0,0-3-.38v-2.22h18.34q8.07,0,12.48,3A9.47,9.47,0,0,1,171,165.07Zm-23.25,9.46h4.14q5.85,0,8.68-2.13t2.84-7c0-3.15-.76-5.41-2.25-6.78s-3.85-2-7-2h-5.37a.88.88,0,0,0-1,1Z"/><path class="cls-1" d="M219.15,199.37l-27.76-36.58h-.23v25a42.39,42.39,0,0,0,.2,4.62,6.23,6.23,0,0,0,.82,2.63,2.87,2.87,0,0,0,1.76,1.22,13.41,13.41,0,0,0,3,.35v2.22H181.23v-2.22a14.68,14.68,0,0,0,3.3-.38,3.57,3.57,0,0,0,2-1.19,5.28,5.28,0,0,0,.93-2.49,31.15,31.15,0,0,0,.23-4.35V164.43a32.77,32.77,0,0,0-.2-4.07,6.08,6.08,0,0,0-.82-2.54,3.24,3.24,0,0,0-1.78-1.31,12.37,12.37,0,0,0-3-.5v-2.22h11.57l25.54,34.07h.23v-23a42.48,42.48,0,0,0-.2-4.58,6.23,6.23,0,0,0-.82-2.66,2.92,2.92,0,0,0-1.76-1.23,14.73,14.73,0,0,0-3-.35v-2.22h15.72V156a16,16,0,0,0-3.3.38,3.61,3.61,0,0,0-2,1.2,5.14,5.14,0,0,0-.93,2.51,31.32,31.32,0,0,0-.23,4.33v34.94Z"/><path class="cls-1" d="M276.3,189.49a22,22,0,0,0,.23,3.6,4.08,4.08,0,0,0,.91,2.1,3.59,3.59,0,0,0,1.92,1,16.26,16.26,0,0,0,3.31.35v2.22H263.73v-2.22a16.06,16.06,0,0,0,3.3-.35,3.92,3.92,0,0,0,2-1,3.68,3.68,0,0,0,.94-2,19.8,19.8,0,0,0,.23-3.33V177.22H246.5v12.27a22,22,0,0,0,.23,3.6,4,4,0,0,0,.91,2.1,3.59,3.59,0,0,0,1.92,1,16.23,16.23,0,0,0,3.3.35v2.22H233.93v-2.22a16.06,16.06,0,0,0,3.3-.35,3.92,3.92,0,0,0,2-1,3.68,3.68,0,0,0,.94-2,19.8,19.8,0,0,0,.23-3.33V162.67a22.33,22.33,0,0,0-.2-3.3,4.08,4.08,0,0,0-.82-2,3.23,3.23,0,0,0-1.78-1,21.15,21.15,0,0,0-3-.38v-2.22h17.76V156a14.73,14.73,0,0,0-3,.35,3.25,3.25,0,0,0-1.75,1,4.39,4.39,0,0,0-.82,2.11,24.18,24.18,0,0,0-.2,3.56V174.3h23.66V162.67a22.33,22.33,0,0,0-.2-3.3,4.08,4.08,0,0,0-.82-2,3.23,3.23,0,0,0-1.78-1,21.15,21.15,0,0,0-3-.38v-2.22h17.76V156a14.73,14.73,0,0,0-3,.35,3.25,3.25,0,0,0-1.75,1,4.39,4.39,0,0,0-.82,2.11,24.18,24.18,0,0,0-.2,3.56Z"/><path class="cls-1" d="M312.17,153.21a25.11,25.11,0,0,1,9.59,1.81,24.15,24.15,0,0,1,7.71,5,23,23,0,0,1,5.14,7.43,22.66,22.66,0,0,1,1.87,9.23,21,21,0,0,1-1.9,8.88,22.74,22.74,0,0,1-5.17,7.22,24.58,24.58,0,0,1-7.71,4.85,26.37,26.37,0,0,1-19.05,0,24.58,24.58,0,0,1-7.71-4.85,22.58,22.58,0,0,1-5.17-7.22,21,21,0,0,1-1.9-8.88,22.66,22.66,0,0,1,1.87-9.23,23,23,0,0,1,5.14-7.43,24.15,24.15,0,0,1,7.71-5A25.09,25.09,0,0,1,312.17,153.21Zm0,42.95a17,17,0,0,0,6.93-1.35,14.66,14.66,0,0,0,5.26-3.86,17.3,17.3,0,0,0,3.36-6.1,25.93,25.93,0,0,0,1.17-8,28.41,28.41,0,0,0-1.17-8.44,19.11,19.11,0,0,0-3.33-6.43,14.7,14.7,0,0,0-5.26-4.09,17.63,17.63,0,0,0-13.91,0,14.7,14.7,0,0,0-5.26,4.09,19.11,19.11,0,0,0-3.33,6.43,28.41,28.41,0,0,0-1.17,8.44,25.93,25.93,0,0,0,1.17,8A17.57,17.57,0,0,0,300,191a14.32,14.32,0,0,0,5.26,3.86A17.23,17.23,0,0,0,312.17,196.16Z"/><path class="cls-1" d="M379.43,198.78H341.68v-2.22a16.26,16.26,0,0,0,3.31-.35,3.88,3.88,0,0,0,1.95-1,3.68,3.68,0,0,0,.94-2,19.8,19.8,0,0,0,.23-3.33V162.67a22.33,22.33,0,0,0-.2-3.3,4.08,4.08,0,0,0-.82-2,3.23,3.23,0,0,0-1.78-1,21.15,21.15,0,0,0-3-.38v-2.22H360V156a14.73,14.73,0,0,0-3,.35,3.25,3.25,0,0,0-1.75,1,4.39,4.39,0,0,0-.82,2.11,24.18,24.18,0,0,0-.2,3.56v25.19a13.45,13.45,0,0,0,.49,4,4.49,4.49,0,0,0,1.7,2.39,7.45,7.45,0,0,0,3.18,1.17,31.64,31.64,0,0,0,5,.33,34,34,0,0,0,5.61-.39,10.36,10.36,0,0,0,3.82-1.34,6.82,6.82,0,0,0,2.46-2.69,19.37,19.37,0,0,0,1.55-4.47h2.22Z"/><path class="cls-1" d="M413.67,188.32l15.19-34.53H442V156a10.21,10.21,0,0,0-3,.47,3.34,3.34,0,0,0-1.75,1.37,6.43,6.43,0,0,0-.82,2.66,38.91,38.91,0,0,0-.2,4.32v22.91a36.81,36.81,0,0,0,.23,4.62,5.92,5.92,0,0,0,.91,2.63,3.14,3.14,0,0,0,1.93,1.22,16.06,16.06,0,0,0,3.3.35v2.22H423.61v-2.22a14.68,14.68,0,0,0,3.3-.38,3.51,3.51,0,0,0,1.95-1.19,5.18,5.18,0,0,0,.94-2.49,32.78,32.78,0,0,0,.23-4.35V161h-.58l-17.06,38.33H411.1L394.33,161h-.23v26.7a35,35,0,0,0,.23,4.62,5.92,5.92,0,0,0,.91,2.63,3.12,3.12,0,0,0,1.92,1.22,16.26,16.26,0,0,0,3.31.35v2.22H384.16v-2.22a14.7,14.7,0,0,0,3.31-.38,3.51,3.51,0,0,0,1.95-1.19,5.18,5.18,0,0,0,.94-2.49,32.78,32.78,0,0,0,.23-4.35V164.43a34.85,34.85,0,0,0-.2-4.07,6.08,6.08,0,0,0-.82-2.54,3.28,3.28,0,0,0-1.78-1.31,12.46,12.46,0,0,0-3-.5v-2.22h14l14.73,34.53Z"/><path class="cls-1" d="M448.61,185.05h2.17a14.76,14.76,0,0,0,1.54,4.74,12.26,12.26,0,0,0,2.87,3.56,12.6,12.6,0,0,0,4,2.25,14.56,14.56,0,0,0,4.88.79,10.51,10.51,0,0,0,6.84-2,6.78,6.78,0,0,0,2.51-5.55,7.15,7.15,0,0,0-.5-2.69,7,7,0,0,0-1.66-2.36,15.17,15.17,0,0,0-3.13-2.25,51.54,51.54,0,0,0-4.94-2.4,53.29,53.29,0,0,1-6.07-3,17.52,17.52,0,0,1-3.92-3,9.65,9.65,0,0,1-2.07-3.37,12.37,12.37,0,0,1-.62-4.06,12.64,12.64,0,0,1,1-5,11.58,11.58,0,0,1,2.72-3.95,12.27,12.27,0,0,1,4.14-2.57,14.86,14.86,0,0,1,5.26-.9,13.61,13.61,0,0,1,4.79.82,16.34,16.34,0,0,1,4.5,2.62l1.52-2.62h1.35l.64,11.62h-2.16a14.85,14.85,0,0,0-4.06-7.13,9.42,9.42,0,0,0-6.4-2.33,8.56,8.56,0,0,0-5.67,1.75,5.85,5.85,0,0,0-2.1,4.73,6.1,6.1,0,0,0,2,4.71,15.58,15.58,0,0,0,2.75,2,37.88,37.88,0,0,0,4.21,2.13,76.7,76.7,0,0,1,7.18,3.6,23,23,0,0,1,4.56,3.33,10,10,0,0,1,2.4,3.5,11.49,11.49,0,0,1,.7,4.12,12.24,12.24,0,0,1-4.44,9.59,15.08,15.08,0,0,1-5,2.71,20.2,20.2,0,0,1-6.42,1,17.76,17.76,0,0,1-6-.94,18.27,18.27,0,0,1-5.41-3.15l-1.64,2.86h-1.34Z"/><path class="cls-1" d="M50.25,249.94l12.81-31.58a43.5,43.5,0,0,0,1.53-4.22,10.17,10.17,0,0,0,.43-2.76,3.08,3.08,0,0,0-1.2-2.77c-.8-.53-2.29-.8-4.47-.8V205H77v2.77a18.77,18.77,0,0,0-2.87.58,7.13,7.13,0,0,0-2.11,1,6.41,6.41,0,0,0-1.6,1.71,16.55,16.55,0,0,0-1.35,2.58L49.38,261.8H46.83L28.06,216.47a37.16,37.16,0,0,0-1.86-3.78,10.69,10.69,0,0,0-2-2.62,7.21,7.21,0,0,0-2.47-1.53,12.26,12.26,0,0,0-3.28-.66V205H42.18v2.84a24.43,24.43,0,0,0-3.31.18,6.18,6.18,0,0,0-2,.59,2.28,2.28,0,0,0-1,1,2.81,2.81,0,0,0-.3,1.31,9.28,9.28,0,0,0,.37,2.36,37.56,37.56,0,0,0,1.38,3.9Z"/><path class="cls-1" d="M105,244.77H89.36c-.66,1.6-1.23,3-1.69,4.24s-.85,2.29-1.14,3.18a20.36,20.36,0,0,0-.62,2.28,9.2,9.2,0,0,0-.17,1.52,2.38,2.38,0,0,0,1.05,2.25,7.36,7.36,0,0,0,3.51.61v2.22H76.1v-2.22a14.71,14.71,0,0,0,2.31-.46,5.9,5.9,0,0,0,1.69-.82,5,5,0,0,0,1.29-1.38,13.13,13.13,0,0,0,1.08-2.07l15.19-38h2.51l13.27,33q1.34,3.27,2.33,5.23a13.29,13.29,0,0,0,1.93,3,4.3,4.3,0,0,0,2,1.28,9.82,9.82,0,0,0,2.6.29v2.28h-19v-2.28a10.7,10.7,0,0,0,4.27-.58,2,2,0,0,0,1.16-1.93c0-.39,0-.75,0-1.08a8.49,8.49,0,0,0-.21-1.08,12.66,12.66,0,0,0-.41-1.31c-.17-.49-.4-1.07-.67-1.73Zm-14.43-2.92h13.32l-6.48-17.24Z"/><path class="cls-1" d="M161.94,261.07H124.19v-2.22a16.23,16.23,0,0,0,3.3-.35,3.92,3.92,0,0,0,2-1,3.67,3.67,0,0,0,.93-2,18.79,18.79,0,0,0,.23-3.33V225a21,21,0,0,0-.2-3.3,4.08,4.08,0,0,0-.82-2,3.2,3.2,0,0,0-1.78-1,21,21,0,0,0-3-.38v-2.22h17.77v2.22a14.73,14.73,0,0,0-3,.35,3.28,3.28,0,0,0-1.76,1,4.29,4.29,0,0,0-.81,2.11,24,24,0,0,0-.21,3.56v25.19a13.41,13.41,0,0,0,.5,4,4.48,4.48,0,0,0,1.69,2.39,7.44,7.44,0,0,0,3.19,1.17,31.66,31.66,0,0,0,5,.32,34.14,34.14,0,0,0,5.61-.38,10.42,10.42,0,0,0,3.83-1.34A6.79,6.79,0,0,0,159,254a18.9,18.9,0,0,0,1.55-4.47h2.22Z"/><path class="cls-1" d="M167.43,247.34h2.16a14.53,14.53,0,0,0,1.55,4.74,12.23,12.23,0,0,0,2.86,3.56,12.6,12.6,0,0,0,4,2.25,14.56,14.56,0,0,0,4.88.79,10.49,10.49,0,0,0,6.84-2.05,6.78,6.78,0,0,0,2.51-5.55,7.15,7.15,0,0,0-.49-2.69A7.23,7.23,0,0,0,190,246a15.17,15.17,0,0,0-3.13-2.25,52.42,52.42,0,0,0-4.93-2.4,53.52,53.52,0,0,1-6.08-3,17.52,17.52,0,0,1-3.92-3,9.65,9.65,0,0,1-2.07-3.37,12.38,12.38,0,0,1-.61-4.06,12.64,12.64,0,0,1,1-5A11.58,11.58,0,0,1,173,219a12.31,12.31,0,0,1,4.15-2.57,14.82,14.82,0,0,1,5.26-.9,13.88,13.88,0,0,1,4.79.81,16.8,16.8,0,0,1,4.5,2.63l1.52-2.63h1.34l.64,11.63H193a14.78,14.78,0,0,0-4.06-7.13,9.4,9.4,0,0,0-6.4-2.33,8.58,8.58,0,0,0-5.67,1.75,5.85,5.85,0,0,0-2.1,4.73,6.46,6.46,0,0,0,.47,2.54,6.32,6.32,0,0,0,1.52,2.17,15.11,15.11,0,0,0,2.74,2,37.88,37.88,0,0,0,4.21,2.13,78.29,78.29,0,0,1,7.19,3.6,23.23,23.23,0,0,1,4.55,3.33,10,10,0,0,1,2.4,3.5,11.49,11.49,0,0,1,.7,4.12,12.24,12.24,0,0,1-4.44,9.59,15.13,15.13,0,0,1-5,2.71,20.22,20.22,0,0,1-6.43,1,17.8,17.8,0,0,1-6-.94,18.39,18.39,0,0,1-5.41-3.15l-1.63,2.86H168.3Z"/><path class="cls-1" d="M216.92,236.36a31.32,31.32,0,0,0,5.29-.38,9.24,9.24,0,0,0,3.39-1.2,4.81,4.81,0,0,0,1.81-2.1,7.64,7.64,0,0,0,.55-3h2v16h-2a8.46,8.46,0,0,0-.49-3,4.52,4.52,0,0,0-1.76-2.13,9.31,9.31,0,0,0-3.39-1.29,27.67,27.67,0,0,0-5.4-.44V251.9a9,9,0,0,0,.47,3.18,4.23,4.23,0,0,0,1.6,2,7.4,7.4,0,0,0,3,1.11,28.45,28.45,0,0,0,4.62.32,26.36,26.36,0,0,0,5.26-.44,9.23,9.23,0,0,0,3.62-1.49,7.65,7.65,0,0,0,2.34-2.77,18.88,18.88,0,0,0,1.46-4.3h2.22l-.88,11.51H204.36v-2.22a16.23,16.23,0,0,0,3.3-.35,4,4,0,0,0,2-1,3.74,3.74,0,0,0,.93-2,19.8,19.8,0,0,0,.23-3.33V225a21,21,0,0,0-.2-3.3,4.08,4.08,0,0,0-.82-2,3.2,3.2,0,0,0-1.78-1,21,21,0,0,0-3-.38v-2.22h33.77l.53,10.28h-2a12.35,12.35,0,0,0-1.14-3.82,6.2,6.2,0,0,0-2.17-2.37,9.38,9.38,0,0,0-3.47-1.23,32.06,32.06,0,0,0-5.09-.35h-7.42a.88.88,0,0,0-1,1Z"/><path class="cls-1" d="M276.29,250.61l15.19-34.53h13.09v2.22a10.15,10.15,0,0,0-3,.47,3.3,3.3,0,0,0-1.75,1.37,6.28,6.28,0,0,0-.82,2.66,36.31,36.31,0,0,0-.21,4.32V250a34.69,34.69,0,0,0,.24,4.62,5.8,5.8,0,0,0,.9,2.63,3.14,3.14,0,0,0,1.93,1.22,16.23,16.23,0,0,0,3.3.35v2.22H286.22v-2.22a14.68,14.68,0,0,0,3.3-.38,3.54,3.54,0,0,0,2-1.19,5.08,5.08,0,0,0,.93-2.49,30.89,30.89,0,0,0,.24-4.35V223.33h-.59L275,261.66h-1.28L257,223.33h-.24V250a34.69,34.69,0,0,0,.24,4.62,5.8,5.8,0,0,0,.9,2.63,3.14,3.14,0,0,0,1.93,1.22,16.23,16.23,0,0,0,3.3.35v2.22h-16.3v-2.22a14.68,14.68,0,0,0,3.3-.38,3.54,3.54,0,0,0,2-1.19,5.18,5.18,0,0,0,.93-2.49,30.89,30.89,0,0,0,.24-4.35V226.72a32.52,32.52,0,0,0-.21-4.07,6.08,6.08,0,0,0-.82-2.54,3.24,3.24,0,0,0-1.78-1.31,12.37,12.37,0,0,0-3-.5v-2.22h14l14.72,34.53Z"/><path class="cls-1" d="M334.66,215.5a26,26,0,0,1,6.9.9,24.33,24.33,0,0,1,6.07,2.6l5.09-6.43h4l-6.49,8.24a23.49,23.49,0,0,1,6.37,7.86A22.5,22.5,0,0,1,359,238.93a21,21,0,0,1-1.9,8.88A22.9,22.9,0,0,1,351.9,255a24.58,24.58,0,0,1-7.71,4.85,25.35,25.35,0,0,1-9.53,1.78,26,26,0,0,1-7.27-1,25.27,25.27,0,0,1-6.4-2.87l-6.31,8h-4l7.77-9.82a22.81,22.81,0,0,1-6-7.54,21.09,21.09,0,0,1-2.17-9.52,22.83,22.83,0,0,1,1.87-9.23,23.17,23.17,0,0,1,5.14-7.43,24.31,24.31,0,0,1,7.72-5A25.06,25.06,0,0,1,334.66,215.5ZM318,239.1q0,8,3.56,13L345,222.33a15.16,15.16,0,0,0-10.34-3.62,16.42,16.42,0,0,0-7,1.43,14.61,14.61,0,0,0-5.26,4.09,19,19,0,0,0-3.33,6.43A28.41,28.41,0,0,0,318,239.1Zm16.71,19.34a17.07,17.07,0,0,0,6.93-1.34,14.63,14.63,0,0,0,5.25-3.86,17.15,17.15,0,0,0,3.36-6.1,25.93,25.93,0,0,0,1.17-8,29.45,29.45,0,0,0-1.05-8.18,18.31,18.31,0,0,0-3.1-6.25l-23.6,29.8A15.66,15.66,0,0,0,334.66,258.44Z"/><path class="cls-1" d="M401.92,261.07H364.17v-2.22a16.23,16.23,0,0,0,3.3-.35,3.92,3.92,0,0,0,2-1,3.6,3.6,0,0,0,.93-2,18.66,18.66,0,0,0,.24-3.33V225a20.85,20.85,0,0,0-.21-3.3,4,4,0,0,0-.82-2,3.16,3.16,0,0,0-1.78-1,21,21,0,0,0-3-.38v-2.22h17.77v2.22a14.73,14.73,0,0,0-3,.35,3.21,3.21,0,0,0-1.75,1,4.29,4.29,0,0,0-.82,2.11,24,24,0,0,0-.21,3.56v25.19a13.41,13.41,0,0,0,.5,4,4.53,4.53,0,0,0,1.69,2.39,7.44,7.44,0,0,0,3.19,1.17,31.66,31.66,0,0,0,5,.32,34.14,34.14,0,0,0,5.61-.38,10.42,10.42,0,0,0,3.83-1.34A6.79,6.79,0,0,0,399,254a18.9,18.9,0,0,0,1.55-4.47h2.22Z"/><path class="cls-1" d="M444.4,261.07H406.65v-2.22a16.23,16.23,0,0,0,3.3-.35,3.92,3.92,0,0,0,2-1,3.6,3.6,0,0,0,.93-2,18.66,18.66,0,0,0,.24-3.33V225a20.85,20.85,0,0,0-.21-3.3,4,4,0,0,0-.82-2,3.16,3.16,0,0,0-1.78-1,21,21,0,0,0-3-.38v-2.22H425v2.22a14.73,14.73,0,0,0-3,.35,3.21,3.21,0,0,0-1.75,1,4.29,4.29,0,0,0-.82,2.11,24,24,0,0,0-.21,3.56v25.19a13.41,13.41,0,0,0,.5,4A4.53,4.53,0,0,0,421.4,257a7.44,7.44,0,0,0,3.19,1.17,31.66,31.66,0,0,0,5,.32,34.14,34.14,0,0,0,5.61-.38,10.42,10.42,0,0,0,3.83-1.34A6.79,6.79,0,0,0,441.5,254a18.9,18.9,0,0,0,1.55-4.47h2.22Z"/><path class="cls-1" d="M461.69,236.36A31.15,31.15,0,0,0,467,236a9.24,9.24,0,0,0,3.39-1.2,4.74,4.74,0,0,0,1.81-2.1,7.64,7.64,0,0,0,.56-3h2v16h-2a8.46,8.46,0,0,0-.5-3,4.5,4.5,0,0,0-1.75-2.13,9.38,9.38,0,0,0-3.39-1.29,27.79,27.79,0,0,0-5.41-.44V251.9a9.2,9.2,0,0,0,.47,3.18,4.25,4.25,0,0,0,1.61,2,7.34,7.34,0,0,0,3,1.11,28.23,28.23,0,0,0,4.61.32,26.3,26.3,0,0,0,5.26-.44,9.23,9.23,0,0,0,3.62-1.49,7.46,7.46,0,0,0,2.34-2.77,18.4,18.4,0,0,0,1.46-4.3h2.22l-.87,11.51H449.13v-2.22a16.23,16.23,0,0,0,3.3-.35,3.92,3.92,0,0,0,2-1,3.6,3.6,0,0,0,.93-2,18.66,18.66,0,0,0,.24-3.33V225a20.85,20.85,0,0,0-.21-3.3,4,4,0,0,0-.82-2,3.16,3.16,0,0,0-1.78-1,21,21,0,0,0-3-.38v-2.22h33.78l.52,10.28h-2a11.83,11.83,0,0,0-1.14-3.82,6.26,6.26,0,0,0-2.16-2.37,9.5,9.5,0,0,0-3.48-1.23,31.92,31.92,0,0,0-5.08-.35h-7.42a.88.88,0,0,0-1,1Z"/><polygon class="cls-2" points="266.39 57.15 238.23 57.15 219.12 125.64 285.49 125.64 266.39 57.15"/><polygon class="cls-3" points="301.18 57.83 252.37 141.25 203.56 57.83 221.84 57.83 252.31 109.9 282.78 57.83 301.18 57.83"/><path class="cls-1" d="M273.19,51.1a4.21,4.21,0,0,1-2.52,4.21c-1.66.79-10.24,1.84-14.4,1.84h-7.86c-4.17,0-12.74-1-14.4-1.84a4.21,4.21,0,0,1-2.52-4.21c0-2.1,3.54-7.67,7.11-11.13a51.93,51.93,0,0,1,9.42-7.1c3.24-1.83,2.86-4.91,3.25-7a4.82,4.82,0,0,1,.79-2.3.47.47,0,0,1,.28-.16.5.5,0,0,1,.28.16,4.94,4.94,0,0,1,.79,2.3c.39,2.14,0,5.22,3.25,7a51.93,51.93,0,0,1,9.42,7.1C269.65,43.43,273.19,49,273.19,51.1Z"/><polygon class="cls-2" points="248.48 62.38 217.99 88.72 206.76 78.95 237.24 52.62 248.48 62.38"/><polygon class="cls-2" points="295.93 23.41 265.44 49.75 254.21 39.98 284.69 13.64 295.93 23.41"/><polygon class="cls-2" points="250.39 39.98 239.15 49.75 208.66 23.41 219.9 13.64 250.39 39.98"/><polygon class="cls-2" points="297.84 78.95 286.6 88.72 256.12 62.38 267.35 52.62 297.84 78.95"/><path class="cls-1" d="M256.84,80.43s0-1.59-4.47-1.59-4.47,1.59-4.47,1.59v8.94h8.94Z"/></svg>