<svg xmlns="http://www.w3.org/2000/svg" width="560" height="560" viewBox="0 0 560 560"><defs><style>.cls-1{fill:#cbcbcb;}</style></defs><title>swipeicon</title><g id="Layer_1" data-name="Layer 1"><path class="cls-1" d="M201.05,216.57a4,4,0,0,1-1.39-.84,5.37,5.37,0,0,1-.41-.44L199,215l-1.19-1.31L195.39,211l-4.73-5.29-9.4-10.63q-9.37-10.64-18.62-21.41-18.49-21.52-36.43-43.53-8.94-11-17.67-22.24c-2.88-3.76-5.82-7.47-8.66-11.27L95.62,91l-2.14-2.84-2.13-2.74C85.68,78.12,79,71.53,71.22,67.18a30.9,30.9,0,0,0-12.26-4,19.2,19.2,0,0,0-6.12.41,17.3,17.3,0,0,0-2.8,1c-.44.24-.91.4-1.32.67l-1.22.84a6.84,6.84,0,0,0-1.13,1,9.36,9.36,0,0,0-1.06,1,15.73,15.73,0,0,0-1.77,2.43,20.78,20.78,0,0,0-2.36,5.67,33.5,33.5,0,0,0-.39,12.88A59.73,59.73,0,0,0,44.46,102l1.33,3.12,1.51,3.06.76,1.52.86,1.49,1.7,3c1.24,1.94,2.46,3.84,3.77,5.78l4,5.84,8,11.69,16,23.39q32,46.81,63.67,93.95c10.48,15.76,20.92,31.55,31.14,47.51,5.12,8,10.18,16,15.14,24.14,1.26,2,2.44,4.11,3.66,6.16s2.46,4.08,3.6,6.26l1.75,3.22c.58,1.07,1.17,2.11,1.72,3.31l.83,1.76.75,1.82c.52,1.2.93,2.49,1.35,3.77a34.38,34.38,0,0,1,1.53,8.31,24.11,24.11,0,0,1-1.27,9.1,22.29,22.29,0,0,1-4.93,8,29.43,29.43,0,0,1-6.91,5.3,45.35,45.35,0,0,1-7.36,3.34,67.56,67.56,0,0,1-7.41,2.18,117.38,117.38,0,0,1-14.7,2.45,274.5,274.5,0,0,1-29,1.36c-9.57,0-19.08-.22-28.54-.49s-18.88-.6-28.17-.61c-4.64,0-9.26.06-13.75.35-2.25.14-4.45.35-6.58.64a37.17,37.17,0,0,0-5.9,1.21.67.67,0,0,0-.24.08l-.14.06a1.58,1.58,0,0,0-.31.13,1.71,1.71,0,0,1-.33.17l-.34.24a8.32,8.32,0,0,0-.72.56c-.22.26-.48.44-.7.73a12.43,12.43,0,0,0-2.24,3.91,16.13,16.13,0,0,0-.13,9.85,24.37,24.37,0,0,0,2.14,5,31.32,31.32,0,0,0,3.39,4.63,45.85,45.85,0,0,0,9.39,7.92,81.79,81.79,0,0,0,11.46,6.12q6.44,2.81,12.94,5.53,13,5.44,26.14,10.69,26.24,10.49,52.76,20.24c35.35,12.9,71.07,25,107.23,34.33,9,2.3,18.1,4.4,27.16,6.14a220.66,220.66,0,0,0,27,3.7,92,92,0,0,0,12.86,0,42.63,42.63,0,0,0,5.7-.88l.66-.14.73-.21,1.48-.41c1-.33,2-.63,3-1a163.52,163.52,0,0,0,24.25-11.28,402,402,0,0,0,46.21-30.39A487.69,487.69,0,0,0,465,433.77c13.4-12.68,26-26.2,36.6-40.74A124,124,0,0,0,515,370.47c3.41-7.68,5.29-15.69,4.25-22.2a19.59,19.59,0,0,0-.52-2.35l-.16-.57c-.07-.21-.08-.34-.2-.65l-.58-1.61c-.78-2.16-1.52-4.32-2.34-6.46l-2.49-6.43-2.66-6.37c-3.62-8.47-7.58-16.83-11.77-25.1a530.44,530.44,0,0,0-28-48.24c-10.13-15.64-21-30.84-32.63-45.36-5.81-7.23-11.83-14.34-18.13-20.86-1.57-1.61-3.16-3.19-4.75-4.65-.79-.71-1.59-1.41-2.35-2l-1.11-.86c-.34-.26-.58-.38-.87-.6a4.25,4.25,0,0,0-.59-.32l-.68-.34-1.34-.68-2.91-1.24-3-1.12c-1-.37-2.11-.67-3.16-1-4.26-1.29-8.66-2.41-13.16-3.31-2.23-.5-4.51-.87-6.76-1.3s-4.55-.78-6.85-1.09c-9.16-1.35-18.43-2.28-27.73-3a436.47,436.47,0,0,0-56-.44,274.17,274.17,0,0,0-27.8,2.91C256,166,251.48,166.81,247,168l-1.67.42-1.65.49c-1.07.34-2.25.62-3.23,1a37.29,37.29,0,0,0-6,2.68c-7.74,4.37-14.21,11.19-19.55,18.73a111.3,111.3,0,0,0-7.32,11.88c-1.1,2.06-2.14,4.16-3.12,6.28-.49,1.07-1,2.13-1.43,3.21l-.68,1.62-.32.81-.16.41C201.56,215.88,202.45,215.3,201.05,216.57Zm-.4-1.85c-1.32,1-.33.14-.57.2l.13-.43.27-.86.56-1.7c.39-1.13.79-2.26,1.21-3.37.85-2.24,1.77-4.44,2.75-6.63a113,113,0,0,1,6.7-12.74,80.17,80.17,0,0,1,8.68-11.68,55.72,55.72,0,0,1,11.22-9.71,43,43,0,0,1,6.73-3.51c1.19-.54,2.31-.87,3.47-1.3l1.72-.61,1.74-.55c4.63-1.49,9.31-2.62,14-3.67a283.16,283.16,0,0,1,28.42-4.5,436.77,436.77,0,0,1,57.31-2.1q14.37.39,28.75,2c2.4.24,4.8.59,7.2.88s4.8.68,7.2,1.12c4.81.79,9.62,1.82,14.46,3.09,1.21.35,2.42.64,3.63,1s2.43.77,3.65,1.19l3.67,1.41,1.85.85.93.43a8.9,8.9,0,0,1,1,.49c.71.42,1.51.87,2.12,1.29l1.74,1.25c1.1.83,2.11,1.65,3.11,2.49,1.94,1.67,3.78,3.36,5.57,5.07,7.07,6.85,13.47,14,19.73,21.33a546.5,546.5,0,0,1,34.83,45.78q8.13,11.86,15.64,24.17t14.34,25q6.81,12.76,12.76,26l2.91,6.67,2.75,6.75c.91,2.25,1.74,4.55,2.61,6.83l.65,1.71c.1.24.23.68.34,1l.35,1.12a40.16,40.16,0,0,1,1.1,4.55,49.25,49.25,0,0,1-.42,17.52,76.22,76.22,0,0,1-4.84,15.42,142.92,142.92,0,0,1-15.16,26.33c-2.86,4.06-5.87,8-9,11.77s-6.3,7.51-9.57,11.12c-6.54,7.24-13.36,14.13-20.38,20.79a484,484,0,0,1-44.43,37c-7.74,5.74-15.69,11.2-23.81,16.45s-16.44,10.23-25.07,14.84a182.39,182.39,0,0,1-27.35,12.09,74.93,74.93,0,0,1-7.75,2.14,58.59,58.59,0,0,1-8.32,1.14,108.7,108.7,0,0,1-15.48-.26,237.9,237.9,0,0,1-29.1-4.49c-9.47-2-18.79-4.33-28-6.84-18.48-5.06-36.63-10.86-54.65-17s-35.86-12.63-53.6-19.38-35.38-13.75-52.92-21q-13.15-5.43-26.24-11.08-6.54-2.82-13.07-5.76a93.42,93.42,0,0,1-13.43-7.39,59.46,59.46,0,0,1-12.08-10.47,46,46,0,0,1-4.87-6.86A37.18,37.18,0,0,1,35,413.19a29.52,29.52,0,0,1,.59-18.05,25.56,25.56,0,0,1,4.91-8.22,23.25,23.25,0,0,1,1.79-1.79,22.66,22.66,0,0,1,2.09-1.61l1.14-.72,1.25-.64a11.17,11.17,0,0,1,1.32-.57l.69-.25c.25-.09.45-.15.6-.19a51.12,51.12,0,0,1,8-1.57c2.56-.32,5.07-.53,7.54-.65,4.95-.26,9.78-.27,14.6-.22,9.61.13,19.08.57,28.52,1s18.82.77,28.15.87a264.76,264.76,0,0,0,27.7-.91,105.35,105.35,0,0,0,13.28-2,55,55,0,0,0,6.21-1.73,33.18,33.18,0,0,0,5.57-2.42,18,18,0,0,0,4.37-3.2,11.14,11.14,0,0,0,2.54-3.94,13.1,13.1,0,0,0,.71-4.84,23.31,23.31,0,0,0-1-5.61,30.36,30.36,0,0,0-1-2.91l-.58-1.47-.67-1.45c-.4-1-1-2-1.5-3l-1.6-3c-1-2-2.25-4.05-3.38-6.08s-2.28-4.06-3.51-6.07c-4.77-8.08-9.68-16.12-14.66-24.12-9.95-16-20.15-31.92-30.39-47.79q-30.7-47.62-62.1-94.87L60.48,141.44l-7.84-11.81-3.92-5.91c-1.3-2-2.61-4.1-3.88-6.16C40,109.13,36,99.94,34.57,89.94a39.52,39.52,0,0,1,.75-15.28,26.55,26.55,0,0,1,3.18-7.3A22.64,22.64,0,0,1,41,64.11a15.47,15.47,0,0,1,1.49-1.42,13.25,13.25,0,0,1,1.59-1.3l1.73-1.13c.59-.36,1.23-.61,1.85-.91A22.37,22.37,0,0,1,51.49,58a25,25,0,0,1,8-.43,36.32,36.32,0,0,1,14.4,4.92c8.67,5,15.56,12.2,21.38,19.88l2.18,2.88,2.07,2.86,4.16,5.73c2.76,3.82,5.63,7.57,8.44,11.36q8.52,11.3,17.26,22.45Q146.79,150,164.9,171.78q9,10.91,18.19,21.73l9.2,10.79,4.62,5.37,2.32,2.68,1.16,1.33.29.34c.1.12.22.23.18.23A.86.86,0,0,0,200.65,214.72Z"/><path class="cls-1" d="M107.61,42.83c14.08-3.4,28.33-5.85,42.67-7.83s28.77-3.32,43.26-4.21,29-1.11,43.59-.85,29.11,1.4,43.65,3l10.9,1.28,10.89,1.52c3.65.45,7.25,1.14,10.88,1.73s7.26,1.2,10.86,2a224,224,0,0,1,42.32,12.85l10.17,4.44c3.32,1.65,6.63,3.3,9.91,5,1.64.87,3.31,1.65,4.9,2.6s3.19,1.87,4.78,2.82L401.15,70l2.36,1.44c.78.49,1.54,1,2.3,1.54q4.59,3.15,9.08,6.34c1.52,1,2.95,2.22,4.39,3.38l4.28,3.49,4.22,3.54c1.39,1.2,2.7,2.51,4,3.79l3.93,3.87c1.28,1.32,2.58,2.6,3.82,3.95l-1.14,1.51c-1.69-.75-3.31-1.56-5-2.33l-4.85-2.4c-1.63-.78-3.17-1.67-4.82-2.4l-4.89-2.24-4.83-2.27c-1.61-.76-3.17-1.58-4.84-2.23q-4.92-2.07-9.74-4.22c-.81-.35-1.6-.73-2.42-1.06l-2.47-1-4.91-2c-1.63-.66-3.27-1.3-4.88-2s-3.3-1.21-4.94-1.82L370,73.36,360,70c-3.28-1.2-6.66-2.14-10-3.2s-6.63-2.22-10-3.15-6.71-2-10-3.09l-10.11-2.94c-3.36-1.07-6.77-1.94-10.17-2.85s-6.8-1.88-10.26-2.61l-10.34-2.34-10.44-1.93q-20.94-3.57-42.22-5.43t-42.7-2.25c-14.28-.3-28.59,0-42.9.65-7.15.37-14.31.81-21.45,1.46S115.07,43.67,108,44.68Z"/></g></svg>